<?xml version="1.0" encoding="utf-8"?>
<!-- Generator: Adobe Illustrator 27.5.0, SVG Export Plug-In . SVG Version: 6.00 Build 0)  -->
<svg version="1.1" id="Layer_1" xmlns="http://www.w3.org/2000/svg" xmlns:xlink="http://www.w3.org/1999/xlink" x="0px" y="0px"
	 viewBox="0 0 226.181 542.259" style="enable-background:new 0 0 226.181 542.259;" xml:space="preserve">
<g>
	<g>
		<path style="fill:#4B1E0A;" d="M199.995,114.777c-16.037-12.955-42.771-13.46-59.813-2.272
			c-19.279,12.659-28.1,37.974-28.741,60.101c-0.361,12.425,1.969,25.765,7.62,37.103c5.575,9.649,12.043,18.861,21.711,23.681
			c0.971,0.39,1.975,0.732,3.013,1.04c-3.073,1.463-7.515,3.746-7.48,6.381c0.002,0.16,0.132,0.32,0.267,0.395
			c2.389,1.325,5.626,1.602,8.447,2.09c-5.855,23.705-15.574,46.229-22.864,69.498c-6.26,19.986-11.165,40.373-16.119,60.725
			c0.074-1.695,0.137-3.395,0.188-5.1c0.719-24.736-0.664-49.143-3.707-73.688c-0.591-4.764-1.207-9.531-1.947-14.274
			c0.436-0.612,0.848-1.235,1.236-1.874c2.007-2.643,3.789-5.449,5.26-8.439c2.774-5.645,3.702-12.607,4.556-18.761
			c1.64-11.829,1.602-23.757-0.49-35.519c-3.734-20.996-14.365-44.035-36.118-50.406c-0.244-4.242-0.445-8.486-0.642-12.73
			c2.01-0.125,4.003,0.043,5.997,0.281c0.48,0.059,1.095-0.028,1.47-0.359c1.399-1.232,0.045-3.405-0.52-4.66
			c-0.691-1.534-1.581-3.118-2.838-4.242c4.166-0.848,7.682-2.833,11.09-5.154c0.966-0.551,1.902-1.113,2.792-1.674
			c2.679-1.688,4.906-3.647,6.828-5.861c2.42-2.27,4.646-4.74,6.596-7.442c3.677-5.103,5.754-11.813,7.624-17.736
			c3.592-11.389,5.547-23.156,5.448-35.103c-0.182-22.066-7.275-47.527-29.367-56.714C70.456,6.144,44.661,13.187,31.459,28.72
			C16.522,46.294,15.186,73.07,20.8,94.483c3.151,12.024,9.143,24.168,17.759,33.456c8.065,7.689,16.865,14.708,27.498,16.61
			c1.043,0.101,2.103,0.145,3.186,0.149c-2.538,2.27-6.156,5.711-5.381,8.229c0.047,0.154,0.217,0.271,0.366,0.304
			c2.689,0.605,5.905-0.058,8.766-0.382c-0.121,4.063-0.09,8.088,0.063,12.092c-0.118-0.029-0.233-0.064-0.353-0.092
			c-20.091-4.626-44.348,6.625-54.769,24.145c-11.792,19.822-8.638,46.443,0.475,66.618c5.115,11.329,13.052,22.302,23.096,30.021
			c9.237,6.235,19.086,11.685,29.888,11.785c1.042-0.075,2.097-0.208,3.164-0.384c-2.123,2.66-5.116,6.656-3.931,9.012
			c0.071,0.143,0.259,0.23,0.412,0.238c2.768,0.146,5.849-1.061,8.63-1.858c-0.154,5.657,1.81,11.721,3.031,17.072
			c1.955,8.572,4.49,17.016,6.975,25.447c5.13,17.414,8.695,34.356,9.339,52.563c0.036,1.031,0.06,2.061,0.074,3.092
			c-0.15,0.755-0.295,1.512-0.434,2.267c-0.486-1.592-0.92-3.234-1.788-4.648c-0.88-1.434-3.184-4.974-5.052-5.195
			c-4.886-0.58-4.397,7.516-4.403,10.514c-0.005,2.928-0.018,9.585,4.055,10.203c2.021,0.307,3.098-0.77,4.149-2.39
			c0.778-1.197,1.502-2.425,2.249-3.636c-0.552,3.891-0.886,7.794-0.881,11.691c0.005,3.109,0.413,6.039,1.119,8.847
			c-0.013,0.567-0.039,1.134-0.039,1.702c-0.073,1.968-0.118,3.936-0.145,5.902c-0.915,5.773-2.486,11.462-2.983,17.434
			c-0.891,10.713-2.225,21.318-1.861,32.092c0.291,8.642,1.965,17.1,5.704,24.923c1.934,4.039,4.095,8.085,6.476,11.882
			c1.582,2.527,3.663,6.56,6.819,7.28c0.102,0.023,0.202-0.148,0.089-0.18c-3.621-1.038-6.013-7.094-7.589-10.214
			c-2.256-4.469-4.404-9.414-6.038-14.137c-3.109-8.987-3.435-18.843-3.185-28.26c0.262-9.855,0.955-20.164,2.618-29.873
			c0.046-0.264,0.091-0.525,0.137-0.789c0.036,0.689,0.06,1.377,0.108,2.064c1.102,15.318,5.244,30.432,12.878,43.778
			c0.305,0.532,1.045-0.155,0.814-0.639c-6.973-14.541-10.946-30.579-11.86-46.657c-0.199-3.488-0.144-6.973,0.005-10.454
			c1.938,4.675,4.635,9.077,7.631,13.487c7.029,10.345,12.002,20.866,15.404,32.943c3.529,12.528,4.937,25.425,6.192,38.335
			c0.028,0.294,0.427,0.166,0.419-0.083c-0.752-22.346-4.389-46.898-16.103-66.328c-4.976-8.254-10.746-15.484-13.206-24.58
			c0.124-2.001,0.251-4.002,0.354-6.004c0.215-4.17,0.352-8.342,0.421-12.516c0.113-0.584,0.234-1.166,0.351-1.748
			c1.248,0.93,2.631,1.717,4.095,2.564c2.336,1.353,4.952,2.778,7.729,2.223c4.222-0.844,4.082-8.328,4.105-11.425
			c0.021-2.612,0.07-9.399-4.224-8.821c-3.418,0.46-6.222,3.402-8.571,5.686c-0.493,0.479-1.006,0.957-1.506,1.448
			c0.849-4.684,1.484-9.369,1.948-14.068c6.468-24.766,12.06-49.764,19.501-74.268c7.052-23.219,15.941-45.756,20.614-69.631
			c0.397,0.07,0.787,0.146,1.164,0.23c1.992,0.443,3.884,1.178,5.754,1.979c0.445,0.19,1.058,0.28,1.513,0.068
			c1.688-0.789,1.001-3.255,0.813-4.619c-0.231-1.664-0.639-3.436-1.528-4.867c4.235,0.358,8.169-0.557,12.092-1.824
			c1.082-0.258,2.139-0.532,3.151-0.82c3.044-0.865,5.733-2.119,8.201-3.701c2.96-1.498,5.793-3.24,8.425-5.285
			c4.964-3.86,8.847-9.715,12.308-14.873c6.655-9.916,11.844-20.657,15.111-32.147C218.246,156.241,218.608,129.812,199.995,114.777
			z M104.126,368.837c-0.035,4.728-0.151,9.422-0.395,14.098c-0.506,2.054-1.009,4.109-1.521,6.16
			c-0.41,1.643-0.819,3.297-1.219,4.958c-0.72-15.405-3.739-30.001-8.164-44.839c-2.324-7.794-4.8-15.537-7.121-23.33
			c-1.175-3.947-2.241-7.927-3.437-11.868c-0.964-3.182-2.132-6.347-2.327-9.661c0.314-0.087,0.628-0.174,0.934-0.246
			c1.984-0.474,4.007-0.643,6.039-0.74c0.484-0.023,1.074-0.212,1.39-0.602c1.173-1.449-0.525-3.364-1.292-4.508
			c-0.937-1.397-2.077-2.811-3.506-3.707c3.967-1.533,7.101-4.076,10.073-6.934c0.86-0.706,1.69-1.416,2.475-2.117
			c0.793-0.71,1.512-1.45,2.2-2.204c0.606,3.964,1.149,7.944,1.661,11.952C103.035,319.763,104.312,344.129,104.126,368.837z"/>
		<path style="fill:#F15A29;" d="M64.774,142.231c-4.371-0.681-8.522-2.306-12.422-4.497c-16.314-9.995-26.109-29.992-29.814-48.351
			c-4.638-22.97-1.046-52.622,20.031-66.591C63.583,8.866,94.39,10.768,107.794,33.897c6.413,11.068,8.469,24.913,8.798,37.507
			c0.358,13.664-2.638,27.365-7.373,40.121c-2.778,7.486-6.63,13.621-12.601,18.971c-2.895,2.592-6.03,5.176-9.43,7.225
			c-3.177,1.713-6.55,3.045-10.066,3.879c-0.377,0.061-0.754,0.119-1.136,0.158C72.248,142.152,68.46,142.49,64.774,142.231z"/>
		<path style="fill:#F15A29;" d="M65.521,150.592c0.964-2.243,2.808-4.021,4.397-5.898c0.175-0.004,0.353-0.013,0.53-0.018
			c-0.141,0.417-0.232,0.848-0.306,1.164c-0.166,0.723-0.566,2.48,0.253,2.958c0.058,0.034,0.149-0.054,0.097-0.105
			c-0.554-0.557,0.11-2.017,0.343-2.621c0.21-0.548,0.403-1.011,0.695-1.431c0.54-0.027,1.085-0.066,1.64-0.118
			c0.345-0.032,0.691-0.076,1.041-0.124c0.039,0.196,0.101,0.398,0.167,0.607c0.286,0.896,0.528,1.812,0.939,2.663
			c0.088,0.179,0.313,0.023,0.313-0.126c0.004-0.838,0.242-1.707,0.171-2.541c-0.022-0.244-0.027-0.544-0.054-0.846
			c0.214-0.025,0.43-0.053,0.642-0.08c1.593,2.061,2.945,4.05,3.987,6.512c0.37,0.88-1.438,0.34-1.94,0.297
			c-1.709-0.145-3.444,0.01-5.146,0.152c-1.548,0.129-3.096,0.285-4.634,0.498C67.339,151.718,64.494,152.988,65.521,150.592z"/>
		<path style="fill:#2E3192;" d="M98.067,408.375c-1.13,1.78-2.171,3.618-3.393,5.349c-3.298,4.672-4.875-2.656-5.01-4.105
			c-0.139-1.494-0.065-3.029-0.017-4.527c0.04-1.244,0.032-2.487,0.084-3.73c0.004-0.094,0.241-4.68,1.677-3.817
			c0.634,0.381,1.157,1.172,1.658,1.708c1.772,1.896,3.286,3.756,4.48,6.066c0.243,0.472,0.501,0.959,0.778,1.434
			C98.235,407.293,98.15,407.833,98.067,408.375z"/>
		<path style="fill:#2E3192;" d="M69.739,295.347c-4.423,0.059-8.788-0.85-12.997-2.361c-17.755-7.129-30.751-25.208-37.473-42.691
			c-8.407-21.872-9.817-51.708,8.63-69c18.393-17.241,49.085-20.51,66.164,0.056c8.173,9.841,12.511,23.148,14.939,35.511
			c2.635,13.412,1.969,27.42-0.57,40.789c-1.489,7.846-4.263,14.537-9.255,20.809c-2.42,3.038-5.082,6.109-8.091,8.699
			c-2.847,2.217-5.949,4.094-9.277,5.504c-0.361,0.122-0.725,0.243-1.095,0.347C77.095,294.02,73.418,294.986,69.739,295.347z"/>
		<path style="fill:#2E3192;" d="M75.121,303.872c-1.268,0.398-3.86,2.127-3.247-0.406c0.575-2.373,2.096-4.434,3.35-6.549
			c0.171-0.032,0.346-0.072,0.518-0.105c-0.067,0.434-0.087,0.874-0.106,1.198c-0.043,0.741-0.145,2.538,0.744,2.874
			c0.063,0.023,0.138-0.078,0.077-0.12c-0.639-0.456-0.228-2.007-0.1-2.642c0.116-0.574,0.229-1.063,0.446-1.527
			c0.527-0.117,1.061-0.246,1.598-0.391c0.335-0.088,0.669-0.189,1.005-0.295c0.072,0.186,0.165,0.376,0.267,0.57
			c0.432,0.838,0.822,1.699,1.372,2.469c0.114,0.162,0.31-0.029,0.287-0.177c-0.135-0.826-0.046-1.723-0.256-2.534
			c-0.062-0.236-0.117-0.531-0.194-0.824c0.207-0.061,0.414-0.123,0.62-0.186c1.914,1.768,3.581,3.501,5.018,5.754
			c0.515,0.807-1.359,0.574-1.861,0.617c-1.71,0.143-3.396,0.584-5.051,1.01C78.102,302.996,76.603,303.406,75.121,303.872z"/>
		<path style="fill:#2E3192;" d="M111.112,396.675c4.663-2.672,4.378,4.652,4.358,7.285c-0.024,3.41,0.043,9.619-4.973,8.209
			c-2.912-0.818-5.924-2.659-8.565-4.648c0.239-1.183,0.475-2.365,0.711-3.548c0.093-0.46,0.17-0.921,0.256-1.381
			C105.379,400.156,108.816,397.992,111.112,396.675z"/>
		<path style="fill:#00A14B;" d="M150.866,242.955c-1.599-0.619-3.309-0.961-4.981-1.303c-1.522-0.311-3.051-0.598-4.587-0.827
			c-1.315-0.196-4.402,0.222-2.742-1.788c1.556-1.881,3.826-3.068,5.879-4.422c0.168,0.047,0.343,0.088,0.514,0.133
			c-0.252,0.361-0.462,0.748-0.621,1.031c-0.363,0.646-1.242,2.219-0.591,2.91c0.047,0.049,0.157-0.01,0.123-0.074
			c-0.374-0.69,0.674-1.904,1.066-2.42c0.356-0.465,0.671-0.854,1.07-1.176c0.526,0.125,1.062,0.241,1.606,0.348
			c0.341,0.066,0.686,0.122,1.033,0.174c-0.017,0.201-0.016,0.411-0.011,0.631c0.023,0.941-0.003,1.887,0.152,2.82
			c0.033,0.195,0.294,0.108,0.336-0.034c0.241-0.802,0.714-1.569,0.88-2.39c0.049-0.24,0.128-0.529,0.187-0.826
			c0.214,0.035,0.427,0.07,0.639,0.104c0.948,2.428,1.686,4.716,1.992,7.371C152.919,244.165,151.336,243.137,150.866,242.955z"/>
		<path style="fill:#00A14B;" d="M209.856,177.431c-3.503,13.211-10.235,25.514-18.372,36.422
			c-4.773,6.401-10.196,11.203-17.431,14.654c-3.507,1.673-7.244,3.27-11.083,4.279c-3.53,0.748-7.141,1.076-10.751,0.887
			c-0.379-0.049-0.758-0.098-1.135-0.168c-3.698-0.675-7.428-1.416-10.893-2.702c-4.003-1.884-7.529-4.612-10.651-7.814
			c-12.842-14.183-16.61-36.128-14.998-54.788c2.018-23.347,13.813-50.788,37.969-58.257c24.087-7.447,53.111,3.051,59.462,29.019
			C215.012,151.39,213.085,165.253,209.856,177.431z"/>
	</g>
	<g style="opacity:0.7;">
		<path style="fill:#2E3192;" d="M85.118,274.398c-24.053,4.639-48.355-16.513-54.282-47.241
			c-4.698-24.359,3.569-47.413,19.176-58.24c-8.116,2.236-15.832,6.491-22.112,12.378c-18.447,17.292-17.037,47.128-8.63,69
			c6.722,17.483,19.718,35.563,37.473,42.691c4.209,1.512,8.574,2.42,12.997,2.361c3.679-0.361,7.356-1.327,10.976-2.339
			c0.37-0.104,0.733-0.225,1.095-0.347c3.328-1.41,6.431-3.287,9.277-5.504c3.009-2.59,5.671-5.661,8.091-8.699
			c4.543-5.707,7.235-11.772,8.809-18.728C102.153,267.316,94.325,272.622,85.118,274.398z"/>
	</g>
	<path style="fill:#2E3192;" d="M105.06,201.305c9.818,24.868,5.453,49.893-9.752,55.896c-15.204,6.003-35.489-9.289-45.309-34.157
		c-9.818-24.868-5.453-49.895,9.752-55.897C74.956,161.144,95.241,176.436,105.06,201.305z"/>
	<g>
		<path style="fill:#00A14B;" d="M163.293,219.076c-23.756-6.072-36.823-35.987-29.188-66.816
			c6.054-24.439,23.302-42.104,42.023-45.358c-8.3-1.432-17.092-0.833-25.273,1.886c-24.031,7.983-35.382,36.05-37.021,59.795
			c-1.31,18.98,2.813,41.208,15.883,55.402c3.174,3.2,6.744,5.913,10.776,7.761c3.485,1.249,7.226,1.941,10.935,2.566
			c0.378,0.063,0.759,0.108,1.137,0.151c3.613,0.133,7.219-0.261,10.735-1.077c3.822-1.09,7.535-2.772,11.013-4.528
			c6.532-3.299,11.538-7.724,15.907-13.45C181.724,219.881,172.387,221.399,163.293,219.076z"/>
	</g>
	<path style="fill:#00A14B;" d="M211.968,166.803c-4.314,26.813-20.891,46.419-37.026,43.791
		c-16.136-2.628-25.719-26.494-21.404-53.308c4.314-26.813,20.891-46.42,37.026-43.792
		C206.699,116.123,216.281,139.989,211.968,166.803z"/>
	<g>
		<path style="fill:#F15A29;" d="M83.102,124.651c-24.519,0.083-44.675-25.596-45.021-57.354
			C37.81,42.12,50.074,20.693,67.38,12.844c-8.394,0.696-16.754,3.482-23.992,8.167C22.129,34.769,18.184,64.786,22.556,88.183
			c3.494,18.701,13.062,39.183,29.275,49.645c3.875,2.301,8.013,4.031,12.38,4.808c3.687,0.335,7.48,0.066,11.229-0.26
			c0.381-0.032,0.762-0.085,1.138-0.138c3.531-0.778,6.923-2.064,10.122-3.736c3.427-2.015,6.599-4.575,9.523-7.147
			c5.496-4.832,9.231-10.371,12.023-17.011C101.146,120.807,92.488,124.618,83.102,124.651z"/>
	</g>
	<path style="fill:#F15A29;" d="M116.575,59.777c3.746,26.898-6.343,50.506-22.54,52.732c-16.196,2.225-32.362-17.776-36.11-44.676
		c-3.746-26.897,6.344-50.507,22.539-52.731C96.662,12.877,112.826,32.877,116.575,59.777z"/>
	<g>
		<path style="fill:#FFFFFF;" d="M67.201,170.587c0,0,1.139-0.189,3.164-0.092c2.015,0.11,4.928,0.533,8.221,1.785
			c3.295,1.224,6.918,3.334,10.226,6.282c0.784,0.776,1.646,1.511,2.393,2.368c0.385,0.419,0.772,0.841,1.162,1.265
			c0.356,0.449,0.716,0.901,1.076,1.355c0.746,0.892,1.361,1.883,2.045,2.834c0.644,0.977,1.237,1.988,1.847,2.991
			c0.532,1.042,1.094,2.071,1.589,3.124c0.466,1.065,0.969,2.11,1.394,3.176c0.412,1.069,0.826,2.129,1.185,3.191
			c0.331,1.07,0.657,2.127,0.978,3.167c0.565,2.097,1.086,4.131,1.422,6.087c0.175,0.977,0.392,1.916,0.516,2.84
			c0.12,0.924,0.236,1.815,0.349,2.672c0.263,1.705,0.317,3.291,0.434,4.684c0.129,1.391,0.137,2.612,0.154,3.616
			c0.031,2.006,0.021,3.149,0.021,3.149s-0.241-1.125-0.614-3.087c-0.179-0.982-0.398-2.171-0.698-3.525
			c-0.307-1.352-0.572-2.89-0.992-4.537c-0.393-1.652-0.819-3.438-1.349-5.301c-0.473-1.88-1.149-3.804-1.764-5.813
			c-0.356-0.987-0.718-1.991-1.084-3.007c-0.406-0.997-0.816-2.007-1.23-3.023c-0.422-1.013-0.918-1.999-1.375-3.008
			c-0.485-0.994-1.038-1.956-1.549-2.94c-0.562-0.952-1.106-1.917-1.698-2.845c-0.628-0.9-1.191-1.847-1.877-2.688
			c-1.278-1.757-2.7-3.347-4.138-4.828c-1.499-1.412-2.989-2.746-4.537-3.844c-1.557-1.078-3.083-2.037-4.572-2.786
			c-1.494-0.733-2.907-1.34-4.198-1.789c-1.295-0.431-2.447-0.76-3.413-0.979c-0.967-0.202-1.737-0.347-2.268-0.414
			C67.488,170.602,67.201,170.587,67.201,170.587z"/>
		<path style="fill:#FFFFFF;" d="M107.834,232.445c0,1.567-0.711,2.838-1.589,2.838c-0.878,0-1.589-1.27-1.589-2.838
			c0-1.567,0.711-2.838,1.589-2.838C107.123,229.607,107.834,230.877,107.834,232.445z"/>
	</g>
	<g>
		<path style="fill:#FFFFFF;" d="M196.705,120.752c0,0,1.068,0.438,2.742,1.583c1.656,1.152,3.913,3.041,6.059,5.835
			c2.161,2.771,4.138,6.469,5.405,10.715c0.26,1.072,0.606,2.15,0.792,3.273c0.108,0.559,0.217,1.12,0.326,1.686
			c0.067,0.57,0.136,1.144,0.204,1.719c0.167,1.15,0.171,2.317,0.252,3.486c0.036,1.168,0.01,2.342,0.003,3.515
			c-0.095,1.166-0.157,2.337-0.288,3.493c-0.163,1.151-0.283,2.305-0.481,3.435c-0.211,1.126-0.415,2.246-0.667,3.338
			c-0.28,1.085-0.558,2.155-0.83,3.209c-0.62,2.081-1.244,4.086-1.985,5.927c-0.363,0.923-0.672,1.837-1.052,2.689
			c-0.383,0.85-0.752,1.67-1.107,2.457c-0.671,1.589-1.457,2.968-2.089,4.214c-0.621,1.252-1.255,2.296-1.768,3.158
			c-1.026,1.725-1.636,2.691-1.636,2.691s0.385-1.084,1.098-2.949c0.363-0.929,0.801-2.058,1.257-3.367
			c0.448-1.313,1.029-2.76,1.536-4.382c0.534-1.613,1.108-3.356,1.637-5.221c0.584-1.847,1.018-3.841,1.55-5.873
			c0.215-1.026,0.434-2.071,0.655-3.128c0.178-1.062,0.358-2.137,0.54-3.22c0.173-1.083,0.269-2.183,0.408-3.281
			c0.109-1.101,0.145-2.21,0.226-3.315c0.022-1.104,0.065-2.213,0.049-3.313c-0.062-1.096-0.045-2.198-0.186-3.272
			c-0.166-2.167-0.541-4.267-0.987-6.282c-0.535-1.988-1.103-3.906-1.844-5.653c-0.759-1.734-1.555-3.353-2.429-4.773
			c-0.887-1.408-1.771-2.666-2.634-3.726c-0.876-1.047-1.684-1.932-2.392-2.625c-0.717-0.679-1.296-1.207-1.712-1.543
			C196.941,120.915,196.705,120.752,196.705,120.752z"/>
		<path style="fill:#FFFFFF;" d="M198.815,194.732c-0.822,1.333-2.095,2.042-2.842,1.581c-0.747-0.461-0.686-1.916,0.137-3.249
			c0.823-1.334,2.096-2.043,2.843-1.582C199.699,191.943,199.638,193.398,198.815,194.732z"/>
	</g>
	<g>
		<path style="fill:#FFFFFF;" d="M87.688,21.44c0,0,1.149,0.102,3.088,0.699c1.923,0.609,4.639,1.744,7.516,3.777
			c2.886,2.006,5.869,4.952,8.339,8.632c0.565,0.947,1.217,1.874,1.726,2.89c0.27,0.502,0.539,1.007,0.812,1.514
			c0.233,0.525,0.468,1.052,0.704,1.581c0.5,1.05,0.85,2.163,1.273,3.255c0.381,1.105,0.704,2.234,1.044,3.356
			c0.256,1.142,0.543,2.279,0.761,3.422c0.186,1.148,0.412,2.285,0.558,3.423c0.133,1.138,0.27,2.268,0.353,3.386
			c0.053,1.119,0.105,2.224,0.158,3.311c0.024,2.172,0.022,4.271-0.14,6.249c-0.074,0.989-0.099,1.954-0.209,2.88
			c-0.113,0.924-0.223,1.817-0.328,2.674c-0.17,1.717-0.513,3.267-0.747,4.644c-0.222,1.38-0.519,2.564-0.752,3.541
			c-0.469,1.951-0.764,3.055-0.764,3.055s0.046-1.149,0.175-3.142c0.071-0.995,0.154-2.202,0.202-3.589
			c0.04-1.386,0.165-2.94,0.169-4.641c0.032-1.699,0.063-3.534,0.016-5.471c0.011-1.938-0.166-3.97-0.26-6.068
			c-0.099-1.045-0.199-2.106-0.301-3.182c-0.145-1.067-0.291-2.146-0.438-3.235c-0.156-1.086-0.391-2.164-0.582-3.255
			c-0.223-1.084-0.518-2.153-0.768-3.233c-0.306-1.061-0.593-2.133-0.935-3.178c-0.385-1.029-0.694-2.086-1.148-3.071
			c-0.801-2.02-1.781-3.914-2.805-5.706c-1.1-1.741-2.211-3.404-3.437-4.854c-1.238-1.433-2.478-2.741-3.733-3.838
			c-1.265-1.082-2.482-2.021-3.62-2.778c-1.146-0.74-2.182-1.346-3.062-1.798c-0.887-0.437-1.596-0.769-2.093-0.966
			C87.961,21.526,87.688,21.44,87.688,21.44z"/>
		<path style="fill:#FFFFFF;" d="M111.627,91.471c-0.391,1.518-1.397,2.571-2.246,2.352c-0.851-0.219-1.223-1.626-0.833-3.144
			c0.392-1.518,1.396-2.571,2.247-2.353C111.645,88.545,112.017,89.953,111.627,91.471z"/>
	</g>
</g>
</svg>
