<?xml version="1.0" encoding="utf-8"?>
<!-- Generator: Adobe Illustrator 27.5.0, SVG Export Plug-In . SVG Version: 6.00 Build 0)  -->
<svg version="1.1" xmlns="http://www.w3.org/2000/svg" xmlns:xlink="http://www.w3.org/1999/xlink" x="0px" y="0px"
	 viewBox="0 0 500 500" style="enable-background:new 0 0 500 500;" xml:space="preserve">
<g id="BACKGROUND">
	<rect style="fill:#FFFFFF;" width="500" height="500"/>
</g>
<g id="OBJECTS">
	<g>
		<g>
			<g>
				<g>
					<path d="M479.181,439.8c-3.033-7.514-5.609-15.193-8.061-22.907c-2.369-7.453-5.101-14.711-9.579-21.2
						c-0.473-0.686-0.891-1.488-1.779-1.552c-1.127-0.081-2.071-0.595-3.075-0.98c-0.41-0.158-0.859-0.299-1.255-0.152
						c-1.173,0.436-2.389,0.199-3.58,0.32c-0.696,1.275-1.008,2.635-0.899,4.088l0,0l0,0c1.69-0.443,3.405-0.003,5.112-0.097
						c0.973-0.054,1.672,0.898,2.051,1.851c0.711,1.789,0.633,3.561-0.07,5.352c-1.352,3.443-3.661,6.23-6.044,8.971
						c-4.548,5.228-10.026,8.971-16.869,10.515c-1.257,0.284-2.528,0.505-3.817,0.16c-1.124-0.3-2.002-0.857-2.205-2.118
						c-1.405-0.504-3.086-0.13-3.976,0.883v0c0.378,1.114,1.219,2.044,1.53,3.126c0.362,1.26,1.145,1.758,2.214,2.139
						c0.584,0.208,1.253,0.181,1.76,0.592c3.014,2.448,6.524,4.086,9.818,6.08c6.831,4.135,13.628,8.323,20.618,12.192
						c5.258,2.91,10.639,5.526,16.375,7.35c2.457,0.781,4.272-0.518,4.427-3.088c0.061-1.013,0.012-2.021-0.175-3.028
						C481.159,445.375,480.291,442.55,479.181,439.8z M444.49,432.742c-2.311-1.592-4.849-2.797-7.298-4.154
						c-0.334-0.185-0.646-0.409-1.18-0.751c5.578-1.28,10.234-3.847,14.554-7.354c-0.023,0.8-0.371,1.387-0.592,2
						c-1.211,3.37-2.493,6.709-4.186,9.878C445.441,433.011,445.183,433.219,444.49,432.742z M453.12,438.023
						c-1.202-0.793-2.441-1.532-3.693-2.246c-0.572-0.326-0.766-0.585-0.393-1.256c2.829-5.096,4.622-10.616,6.51-16.096
						c0.193-0.56,0.382-1.227,0.017-1.695c-0.63-0.806-0.128-1.246,0.342-1.771c1.447-1.616,2.681-3.399,4.076-5.389
						c-0.213,3.381-0.87,6.409-1.434,9.449c-1.158,6.241-2.669,12.401-4.31,18.532C454.018,438.365,453.82,438.485,453.12,438.023z
						 M463.651,431.22c-0.307,3.687-0.887,7.34-1.289,11.014c-0.085,0.776-0.227,0.968-0.95,0.523
						c-1.092-0.673-2.227-1.276-3.355-1.888c-0.378-0.205-0.571-0.355-0.425-0.887c2.336-8.483,4.331-17.044,5.769-25.729
						c0.01-0.062,0.088-0.112,0.28-0.344C464.214,419.802,464.126,425.51,463.651,431.22z M469.984,443.025
						c-0.181,0.953-0.29,1.925-0.365,2.893c-0.063,0.81-0.381,1.042-1.109,0.659c-0.103-0.054-0.203-0.115-0.308-0.166
						c-2.335-1.147-2.352-1.149-1.98-3.698c1.045-7.171,1.812-14.365,1.79-21.624c0-0.104,0.027-0.209,0.075-0.568
						c0.701,2,1.798,3.761,1.86,5.559C470.143,431.719,471.055,437.376,469.984,443.025z M477.301,450.247
						c-1.159-0.456-2.329-0.885-3.5-1.312c-0.476-0.174-0.644-0.444-0.55-0.975c0.536-3.032,0.78-6.101,1.116-9.529
						c1.671,3.819,2.971,7.425,3.589,11.255C478.056,450.31,477.925,450.493,477.301,450.247z"/>
					<path style="fill:#75C8B0;" d="M392.872,412.893c-0.682-0.408-1.444-0.282-2.156-0.072c-1.044,0.307-2.097,0.617-3.096,1.042
						c-3.229,1.374-6.019,3.283-7.558,6.598c-0.227,0.488-0.576,0.651-1.071,0.756c-1.599,0.34-3.183,0.745-4.725,1.302
						c-3.782,1.365-6.925,3.537-8.948,7.105c-0.637,1.124-1.167,2.302-1.065,3.648c0.076,1.008,0.832,1.801,1.763,1.875
						c0.897,0.072,1.804-0.627,1.994-1.617c0.188-0.976,0.588-1.839,1.14-2.655c1.876-2.769,4.638-4.173,7.735-5.083
						c2.014-0.592,1.935-0.586,2.389,1.368c0.603,2.6,2.116,4.894,4.894,4.789c3.448,0.006,5.976-3.471,4.792-6.623
						c-0.712-1.895-2.04-3.209-3.961-3.857c-0.763-0.258-0.821-0.488-0.26-1.068c1.045-1.079,2.254-1.902,3.586-2.572
						c1.262-0.635,2.643-0.928,3.957-1.411c0.802-0.295,1.406-0.814,1.499-1.759C393.859,413.862,393.513,413.276,392.872,412.893z
						 M385.188,426.448c0.369,0.736-0.027,1.186-0.629,1.501c-0.664,0.348-0.905-0.169-1.096-0.641
						c-0.215-0.533-0.37-1.091-0.551-1.638c-0.01-0.582,0.22-0.721,0.73-0.541C384.33,425.371,384.86,425.794,385.188,426.448z"/>
					<path style="fill:#708ADB;" d="M364.876,389.531c-0.242,0.821-0.409,1.66-0.365,2.529c0.137,2.754,1.924,4.981,4.177,5.193
						c2.178,0.204,4.315-1.475,4.85-3.897c0.461-2.082-0.466-3.754-1.857-5.154c-0.76-0.765-0.563-1.138,0.172-1.693
						c2.744-2.074,5.586-1.745,8.495-0.449c0.872,0.389,1.535,1.038,2.229,1.669c0.781,0.709,1.704,0.837,2.538,0.104
						c0.806-0.708,0.879-1.599,0.352-2.54c-0.331-0.591-0.775-1.094-1.317-1.47c-4.85-3.366-11.067-4.186-15.964,0.727
						c-0.449,0.45-0.826,0.571-1.428,0.315c-0.898-0.382-1.853-0.595-2.872-0.519c-0.763-0.073-1.537,0.053-2.285,0.268
						c-1.722,0.496-3.467,0.98-4.878,2.154c-0.776,0.646-1.126,1.51-0.65,2.507c0.435,0.911,1.233,1.157,2.158,0.958
						c0.365-0.079,0.702-0.318,1.034-0.514c1.398-0.822,2.899-1.333,4.514-1.472C365.031,388.141,365.212,388.391,364.876,389.531z
						 M368.766,391.013c0.586,0.105,0.843,0.73,0.889,1.333c0.031,0.399-0.108,0.922-0.551,0.822
						c-0.611-0.139-0.591-0.798-0.645-1.326C368.561,391.542,368.326,390.934,368.766,391.013z"/>
					<path style="fill:#FCCF04;" d="M447.073,398.477L447.073,398.477c0.103,1.269,0.444,2.472,1.066,3.579
						c0.426,0.758,1.792,1.103,2.556,0.7c0.669-0.353,0.952-1.526,0.82-2.319c-0.168-1.011-0.85-1.93-0.561-3.021l0,0
						c-0.109-1.452,0.203-2.812,0.899-4.088c0.266-1.669,1.165-3.062,2.04-4.443c0.332-0.523,0.576-0.197,0.785,0.312
						c0.772,1.879,2.504,3.375,4.705,2.439c1.801-0.767,2.968-3.197,2.422-5.018c-0.583-1.944-2.01-2.992-3.702-3.819
						c-0.256-0.125-0.642-0.072-0.524-0.576c0.552-2.347,1.275-4.584,3.371-6.082c0.99-0.708,1.939-1.472,2.897-2.224
						c1.124-0.882,1.32-1.78,0.626-2.781c-0.588-0.848-1.823-0.986-2.888-0.287c-0.83,0.545-1.64,1.122-2.445,1.703
						c-3.39,2.444-5.169,5.785-5.436,9.93c-0.041,0.634-0.225,1.111-0.686,1.518c-1.814,1.602-3.031,3.605-4.073,5.771
						c-0.718,1.492-1.056,3.11-1.767,4.592C447.205,395.737,446.752,397.097,447.073,398.477z"/>
					<path style="fill:#FB72AA;" d="M417.49,391.967c1.679,0.813,3.504,1.263,5.357,1.564c0.966,0.158,1.918,0.316,2.878-0.037
						c1.038-0.382,1.716-1.481,1.503-2.483c-0.189-0.89-1.065-1.597-1.997-1.424c-2.114,0.393-3.989-0.391-5.877-1.09
						c-1.147-0.425-1.791-1.321-1.949-2.555c-0.088-0.686,0.041-1.049,0.872-1.132c1.523-0.152,2.959-0.656,4.208-1.589
						c1.237-0.924,1.773-2.274,1.427-3.566c-0.873-3.254-4.547-4.445-7.128-2.308c-0.603,0.499-1.139,1.069-1.509,1.763
						c-0.383,0.719-0.638,0.603-0.999-0.038c-1.188-2.107-0.593-5.826,1.235-7.432c0.426-0.374,0.734-0.772,0.746-1.383
						c0.018-0.954-0.453-1.54-1.291-1.875c-1.102-0.441-2.014-0.01-2.735,0.772c-0.91,0.987-1.444,2.213-1.859,3.48
						c-1.274,3.892-0.907,7.482,2.155,10.45c0.682,0.661,1.102,1.25,0.876,2.085C413.464,388.306,414.739,390.635,417.49,391.967z"
						/>
					<path style="fill:#010101;" d="M428.925,417.813c1.592-6.099,5.589-10.498,10.22-14.446c2.39-2.038,5.137-3.502,7.929-4.889
						c-0.321-1.38,0.132-2.741,0.105-4.113c-6.885,2.453-12.394,6.789-16.892,12.461c-2.691,3.394-4.842,7.073-5.396,11.486
						C426.227,418.078,427.554,417.771,428.925,417.813z"/>
					<path style="fill:#FBCF04;" d="M429.112,422.05c0.798,0.021,1.58-0.083,2.351,0.375c0.609,0.361,1.811-0.367,2.126-1.134
						c0.388-0.946,0.05-2.036-0.834-2.469c-1.204-0.589-2.484-0.938-3.83-1.009l0,0c-1.37-0.042-2.697,0.265-4.033,0.499
						c-0.933,0.655-2.013,1.067-2.875,1.851c-2.73,2.484-5.315,5.078-6.931,8.472c-0.665,1.398-0.357,2.853,0.748,3.43
						c1.008,0.526,2.102,0.174,2.571-1.142c0.649-1.823,1.805-3.264,3.038-4.656c1.099-1.242,2.058-2.673,3.694-3.334v0
						C426.026,421.92,427.708,421.546,429.112,422.05z"/>
					<path style="fill:#FBCF04;" d="M468.47,352.531c1.131,0.138,2.007-0.796,2.101-2.248c0.112-1.74,0.843-3.234,1.81-4.644
						c1.473-2.146,3.083-4.175,4.954-5.993c0.581-0.565,0.975-1.303,0.587-2.089c-0.336-0.681-0.861-1.307-1.707-1.194
						c-1.034-0.055-1.711,0.518-2.28,1.114c-1.106,1.157-2.16,2.374-3.144,3.636c-2.017,2.587-3.816,5.286-4.154,8.695
						C466.494,351.257,467.189,352.375,468.47,352.531z"/>
					<path style="fill:#75C8B0;" d="M434.337,338.678c-0.993-0.35-1.749,0.013-2.304,0.852c-0.349,0.528-0.511,1.138-0.613,1.752
						c-0.474,2.845-0.731,5.708-0.687,8.595c0,1.052,0.02,2.104-0.007,3.156c-0.02,0.807,0.23,1.542,0.554,2.249
						c0.504,1.102,1.817,1.611,2.857,1.157c0.947-0.413,1.286-1.52,0.77-2.697c-0.274-0.624-0.377-1.251-0.375-1.926
						c0.01-3.703,0.269-7.381,0.981-11.022C435.709,339.794,435.341,339.032,434.337,338.678z"/>
					<path style="fill:#FA72AA;" d="M410.54,406.616c-2.696-0.98-5.516-1.251-7.967-1.452c-1.5,0.042-2.649-0.171-3.666,0.535
						c-0.891,0.619-1.174,1.483-0.84,2.452c0.313,0.908,1.173,1.469,2.032,1.155c1.265-0.462,2.461-0.264,3.675-0.084
						c2.586,0.383,5.283,0.378,7.373,2.419c0.687,0.671,1.68,0.554,2.439-0.171c0.691-0.661,0.748-1.726,0.118-2.55
						C412.882,407.843,411.814,407.079,410.54,406.616z"/>
					<path style="fill:#FB73AA;" d="M445.106,374.35c0.427-1.148-0.105-2.277-1.176-2.685c-0.904-0.344-1.93,0.204-2.431,1.26
						c-0.659,1.386-1.016,2.87-1.312,4.352c-0.32,1.602-0.439,3.245-0.041,4.872c0.26,1.064,1.059,1.645,2.14,1.551
						c0.964-0.084,1.595-0.825,1.624-1.924c0.013-0.468,0.002-0.936,0.002-1.404c0.007,0,0.015,0,0.022,0
						c0-0.663-0.1-1.344,0.021-1.984C444.212,377.012,444.615,375.669,445.106,374.35z"/>
					<path style="fill:#75C8B0;" d="M454.032,330.055c0.996-0.037,1.668-0.683,1.774-1.798c0.06-0.637,0.264-1.192,0.551-1.759
						c0.76-1.499,1.773-2.827,2.717-4.203c0.488-0.712,0.519-1.449,0.103-2.194c-0.335-0.6-0.879-0.854-1.556-0.843
						c-0.789-0.063-1.379,0.367-1.801,0.921c-1.462,1.92-2.802,3.921-3.723,6.173c-0.258,0.632-0.346,1.281-0.231,1.945
						C452.043,329.32,453.015,330.092,454.032,330.055z"/>
					<path style="fill:#75C8B0;" d="M369.787,352.383c0.573,0.11,1.15,0.215,1.709,0.378c0.933,0.273,1.841,0.636,2.781,0.879
						c1.149,0.297,2.148-0.179,2.506-1.173c0.359-0.996-0.017-1.827-0.9-2.276c-1.778-0.902-3.69-1.426-5.338-1.663
						c-1.786-0.017-2.702,0.652-2.779,1.779C367.69,351.437,368.348,352.106,369.787,352.383z"/>
					<path style="fill:#76C8B1;" d="M399.173,350.174c0.06,1.278,1.242,2.394,2.452,2.314c1.255-0.082,2.229-1.028,2.192-2.127
						c-0.037-1.087-1.452-2.267-2.707-2.258C400.067,348.112,399.124,349.12,399.173,350.174z"/>
					<path style="fill:#728BDB;" d="M399.616,390.717c1.116,0.033,1.911-0.746,1.908-1.871c-0.003-1.118-0.862-2.067-1.909-2.11
						c-1.055-0.043-1.889,0.797-1.898,1.911C397.707,389.818,398.502,390.684,399.616,390.717z"/>
					<path style="fill:#75C8B0;" d="M451.515,400.437c0.132,0.793-0.151,1.966-0.82,2.319c-0.764,0.403-2.13,0.058-2.556-0.7
						c-0.621-1.107-0.962-2.31-1.066-3.579h0c-2.792,1.387-5.539,2.852-7.929,4.889c-4.631,3.948-8.628,8.347-10.22,14.446l0,0
						c1.347,0.071,2.626,0.42,3.83,1.009c0.884,0.433,1.223,1.522,0.834,2.469c-0.315,0.767-1.517,1.495-2.126,1.134
						c-0.772-0.458-1.554-0.353-2.351-0.375c0.203,1.26,1.081,1.818,2.205,2.118c1.288,0.344,2.56,0.123,3.817-0.16
						c6.843-1.543,12.321-5.287,16.869-10.515c2.384-2.74,4.693-5.527,6.044-8.971c0.703-1.791,0.781-3.563,0.07-5.352
						c-0.379-0.953-1.078-1.905-2.051-1.851c-1.707,0.094-3.422-0.346-5.112,0.097l0,0
						C450.665,398.507,451.347,399.426,451.515,400.437z"/>
					<path style="fill:#A0F1C7;" d="M459.979,409.572c-1.395,1.99-2.63,3.773-4.076,5.389c-0.47,0.525-0.973,0.965-0.342,1.771
						c0.366,0.467,0.176,1.135-0.017,1.695c-1.888,5.48-3.681,11-6.51,16.096c-0.373,0.671-0.179,0.93,0.393,1.256
						c1.251,0.713,2.491,1.453,3.693,2.246c0.7,0.462,0.898,0.342,1.115-0.471c1.641-6.131,3.152-12.29,4.31-18.532
						C459.109,415.981,459.767,412.953,459.979,409.572z"/>
					<path style="fill:#FBCF04;" d="M463.4,414.254c-1.438,8.685-3.433,17.246-5.769,25.729c-0.146,0.531,0.047,0.682,0.425,0.887
						c1.128,0.612,2.263,1.215,3.355,1.888c0.723,0.445,0.865,0.253,0.95-0.523c0.403-3.674,0.982-7.327,1.289-11.014
						c0.475-5.711,0.563-11.419,0.03-17.31C463.488,414.142,463.41,414.192,463.4,414.254z"/>
					<path style="fill:#A0F0C7;" d="M468.087,420.519c-0.049,0.359-0.076,0.463-0.075,0.568c0.022,7.259-0.745,14.453-1.79,21.624
						c-0.371,2.549-0.355,2.551,1.98,3.698c0.105,0.051,0.205,0.112,0.308,0.166c0.728,0.383,1.046,0.151,1.109-0.659
						c0.076-0.968,0.185-1.939,0.365-2.893c1.071-5.649,0.159-11.306-0.037-16.947C469.884,424.281,468.788,422.519,468.087,420.519
						z"/>
					<path style="fill:#36BD8F;" d="M450.566,420.483c-4.319,3.507-8.975,6.074-14.554,7.354c0.534,0.342,0.846,0.566,1.18,0.751
						c2.449,1.358,4.987,2.562,7.298,4.154c0.693,0.477,0.951,0.269,1.299-0.382c1.693-3.168,2.975-6.508,4.186-9.878
						C450.195,421.87,450.543,421.284,450.566,420.483z"/>
					<path style="fill:#36BB8E;" d="M474.367,438.432c-0.336,3.428-0.581,6.497-1.116,9.529c-0.094,0.53,0.074,0.801,0.55,0.975
						c1.171,0.427,2.341,0.856,3.5,1.312c0.624,0.246,0.755,0.062,0.655-0.561C477.339,445.857,476.038,442.251,474.367,438.432z"/>
				</g>
				<g>
					<path d="M98.421,401.711c-0.413-0.655-0.696-1.392-1.024-2.099c-4.335-9.346-11.017-16.492-20.205-21.157
						c-6.585-3.344-13.729-4.482-21.045-4.74c-3.628-0.128-7.152,0.339-10.554,1.641c-0.85,0.325-1.647,0.658-2.039,1.596
						c-1.081,2.585-2.228,5.147-3.056,7.828c-2.63,8.518-5.32,17.011-8.518,25.344c-4.311,11.234-8.461,22.531-11.236,34.273
						c-1.165,4.932-2.264,9.876-2.645,15.158c-0.058,2.131,1.647,3.412,3.866,2.668c0.514-0.172,1.008-0.414,1.495-0.655
						c4.445-2.202,8.551-4.994,12.861-7.429c15.269-8.626,30.233-17.759,45.077-27.09c6.273-3.943,12.288-8.272,18.187-12.757
						c0.914-0.695,1.677-1.509,1.465-2.732C100.468,408.203,100.321,404.726,98.421,401.711z M30.29,453.1
						c-2.614,1.527-5.061,3.342-8.067,4.69c0.586-5.549,1.92-10.776,3.288-16.289c2.286,3.557,3.562,7.239,5.028,10.833
						C30.684,452.692,30.625,452.904,30.29,453.1z M34.68,450.588c-0.553,0.344-0.645-0.066-0.795-0.44
						c-1.272-3.174-2.451-6.393-4.213-9.342c-0.941-1.574-1.661-3.244-2.297-4.949c-0.316-0.847,0.245-1.602,0.554-2.543
						c2.901,5.003,5.197,10.08,6.959,15.4c0.098,0.295,0.166,0.612,0.325,0.872C35.621,450.257,35.06,450.351,34.68,450.588z
						 M44.192,445.192c-1.524,0.778-3.015,1.633-4.455,2.558c-0.789,0.507-0.993,0.237-1.234-0.5
						c-1.73-5.311-4.004-10.382-6.828-15.202c-0.392-0.67-0.775-1.395-1.333-1.909c-0.969-0.892-0.913-1.776-0.462-2.889
						c0.67-1.651,1.2-3.36,1.806-5.092c1.255,0.59,2.02,1.591,2.853,2.504c4.982,5.461,8.181,11.895,10.334,18.908
						C45.129,444.4,44.969,444.795,44.192,445.192z M68.202,430.52c-0.44,0.894-1.832,1.341-2.836,1.932
						c-5.241,3.084-10.524,6.1-15.614,9.431c-0.974,0.637-1.196,0.409-1.516-0.599c-2.356-7.415-5.96-14.132-11.33-19.833
						c-0.993-1.054-1.984-2.113-3.33-2.717c-0.564-0.253-0.468-0.554-0.296-1.01c1.141-3.026,2.254-6.062,3.378-9.095
						c0.132-0.356,0.199-0.718,0.715-0.799c3.54-0.558,7.068-1.194,10.645-1.465c0.656-0.098,0.661,0.341,0.661,0.801
						c0.001,1.327,0.027,2.653,0.015,3.979c-0.024,2.811,0.145,5.61,0.452,8.404c0.283,2.574,1.328,3.794,3.861,4.033
						c4.113,0.387,8.2,0.975,12.302,1.445c1.26,0.144,2.164,0.488,2.197,1.932c0.001,0.038,0.023,0.074,0.032,0.112
						C67.785,428.243,68.679,429.553,68.202,430.52z M77.226,425.106c-1.739,1.031-3.436,2.131-5.274,3.282
						c-0.343-1.301-0.69-2.486-0.964-3.688c-0.441-1.938-1.584-3.028-3.584-3.299c-4.287-0.581-8.562-1.27-12.881-1.57
						c-1.091-0.076-1.498-0.391-1.601-1.563c-0.329-3.74-0.262-7.484-0.359-11.227c-0.016-0.624-0.001-1.251-0.061-1.871
						c-0.193-1.973-1.442-3.003-3.414-2.83c-3.224,0.283-6.448,0.581-9.629,1.189c-0.818,0.156-0.776-0.018-0.618-0.725
						c0.367-1.641,1.327-2.575,2.882-3.15c3.438-1.271,6.88-2.489,10.477-3.262c1.107-0.238,1.168,0.127,1.207,1.046
						c0.237,5.493,0.634,10.974,1.614,16.397c0.502,2.777,1.329,3.664,4.169,3.749c4.639,0.14,9.284,0.142,13.927,0.115
						c1.148-0.007,1.82,0.372,2.242,1.411c0.674,1.66,1.406,3.296,2.109,4.943C77.64,424.457,77.767,424.785,77.226,425.106z
						 M86.936,418.639c-1.714,1.149-3.416,2.318-5.111,3.494c-0.55,0.382-0.809,0.33-1.065-0.362
						c-0.648-1.753-1.424-3.456-2.282-5.121c-1.014-1.968-2.606-2.896-4.814-2.89c-4.487,0.012-8.974-0.033-13.461-0.009
						c-0.883,0.005-1.277-0.194-1.441-1.17c-0.931-5.552-1.215-11.156-1.546-16.761c-0.172-2.9-1.628-4.002-4.522-3.507
						c-3.546,0.606-6.96,1.684-10.332,2.91c-0.288,0.105-0.583,0.191-1.087,0.355c0.464-1.547,0.877-2.88,1.259-4.221
						c0.135-0.473,0.444-0.674,0.878-0.831c4.545-1.637,9.101-3.229,13.834-4.27c0.941-0.207,1.259,0.042,1.587,0.909
						c2.021,5.326,3.259,10.892,5.071,16.28c0.943,2.805,2.02,3.657,5.007,3.555c4.675-0.159,9.346-0.461,14.013-0.78
						c1.032-0.071,1.416,0.272,1.714,1.214c1.059,3.347,1.772,6.782,2.717,10.157C87.5,418.108,87.343,418.366,86.936,418.639z
						 M96.27,411.909c-1.537,1.066-3.043,2.181-4.512,3.338c-0.697,0.549-0.899,0.371-1.089-0.405
						c-0.714-2.911-1.373-5.839-2.345-8.68c-0.189-0.552-0.411-1.094-0.649-1.626c-0.713-1.595-1.919-2.398-3.698-2.286
						c-4.319,0.273-8.639,0.517-12.956,0.813c-3.096,0.213-3.116,0.249-3.995-2.682c-1.453-4.848-2.707-9.757-4.506-14.497
						c-0.152-0.401-0.289-0.807-0.45-1.204c-0.892-2.197-2.188-2.91-4.515-2.461c-3.871,0.748-7.646,1.845-11.359,3.162
						c-0.585,0.208-1.174,0.404-2.042,0.702c0.884-2.359,1.598-4.484,2.586-6.508c0.253-0.518,0.691-0.715,1.182-0.856
						c1.004-0.289,1.979-0.701,3.146-0.757c-0.111,0.588-0.46,1.071-0.34,1.666c0.128,0.629,0.415,1.105,0.978,1.365
						c0.833,0.384,1.624,0.266,2.221-0.456c0.784-0.949,0.492-1.865-0.363-2.865c2.561-0.025,4.948,0.015,7.328,0.301
						c5.848,0.704,11.507,2.042,16.629,5.102c7.016,4.192,12.331,9.947,15.9,17.318c1.542,3.185,2.891,6.42,3.448,9.946
						C96.98,411.041,96.886,411.481,96.27,411.909z"/>
					<path style="fill:#FAE804;" d="M137.715,384.801c-3.999-2.244-7.597-5.254-12.224-6.313c-1.779-0.407-3.488-0.418-5.265-0.024
						c-1.094,0.242-2.123,1.237-3.313,0.597c-1.719-0.925-3.554-0.973-5.782-0.96c-2.194-0.152-4.605,0.439-6.921,1.474
						c-2.796,1.249-5.07,3.063-6.332,5.95c-0.612,1.4-0.123,2.694,1.223,3.229c0.942,0.375,1.899-0.359,2.369-1.686
						c0.252-0.712,0.668-1.351,1.256-1.885c2.96-2.686,6.52-3.421,10.367-3.238c1.223,0.058,1.272,0.284,0.687,1.42
						c-1.094,2.121-2.098,4.252-1.15,6.773c0.829,2.204,3.734,3.866,5.572,3.368c5.137-1.392,6.71-6.119,3.843-10.437
						c-0.152-0.229-0.623-0.344-0.394-0.741c0.201-0.347,0.596-0.368,0.941-0.327c1.527,0.179,3.069,0.37,4.446,1.097
						c2.982,1.575,5.923,3.222,8.692,5.167c0.453,0.318,1.01,0.874,1.788,0.44c0.606-0.338,1.248-0.532,1.383-1.365
						C139.088,386.199,138.621,385.31,137.715,384.801z M118.785,388.985c-0.605,0.577-1.276,0.584-1.943,0.356
						c-0.665-0.228-0.433-0.911-0.497-1.422c-0.117-1.26,0.623-2.186,1.252-3.141c0.059-0.089,0.193-0.521,0.615-0.253
						C119.466,385.321,119.807,388.011,118.785,388.985z"/>
					<path style="fill:#FA72AA;" d="M76.82,360.907c-1.574,0.321-2.243,1.326-1.816,2.637c0.413,1.269,1.805,1.846,3.163,1.314
						c1.085-0.425,1.945-1.139,2.614-2.079c2.129-2.994,3.129-6.307,2.86-9.999c-0.239-3.291-2.999-6.894-6.137-7.845
						c-0.665-0.202-1.046-0.531-1.277-1.188c-1.759-4.994-5.244-8.677-9.21-11.975c-0.911-0.757-1.996-0.616-2.71,0.213
						c-0.632,0.734-0.587,1.849,0.184,2.636c0.926,0.946,1.888,1.859,2.865,2.753c2.01,1.839,3.548,4.007,4.7,6.472
						c0.342,0.732,0.34,1.143-0.506,1.515c-2.029,0.891-3.331,2.501-4.119,4.546c-0.878,2.28-0.277,4.705,1.451,5.882
						c1.642,1.118,3.945,0.785,5.796-0.814c1.673-1.445,2.516-3.302,2.738-5.652c1.248,0.864,1.924,1.877,2.195,3.143
						c0.632,2.949-0.383,5.506-1.933,7.929C77.474,360.711,77.196,360.83,76.82,360.907z M73.483,349.366
						c-0.154,1.154-0.628,2.149-1.583,2.87c-0.235,0.177-0.511,0.259-0.758,0.106c-0.22-0.136-0.147-0.417-0.152-0.718
						c0.272-1.078,0.914-1.965,1.913-2.585C73.248,348.825,73.546,348.893,73.483,349.366z"/>
					<path style="fill:#2950B8;" d="M54.019,340.114c0.876-0.549,1.028-1.428,0.926-2.362c-0.389-3.581-2.001-6.691-3.855-9.683
						c-2.147-3.465-4.881-6.273-8.962-7.417c-0.588-0.165-0.72-0.67-0.968-1.092c-1.673-2.856-3.888-5.17-6.857-6.672
						c-1.244-0.629-2.589-1.055-3.869-1.616c-1.041-0.457-2.015-0.249-2.565,0.623c-0.539,0.855-0.34,2.091,0.456,2.754
						c0.522,0.435,1.159,0.631,1.8,0.804c2.907,0.785,5.158,2.48,6.912,4.903c0.43,0.594,0.564,0.916-0.124,1.496
						c-2.076,1.751-2.82,5.123-1.783,7.6c0.605,1.445,1.548,2.558,3.232,2.682c1.631,0.12,2.705-0.807,3.519-2.096
						c0.874-1.385,1.192-2.937,1.269-4.632c0.232,0.107,0.423,0.156,0.566,0.267c0.522,0.407,1.087,0.779,1.529,1.262
						c2.977,3.253,5.116,6.947,5.804,11.37C51.319,340.028,52.737,340.917,54.019,340.114z M38.729,327.572
						c-0.211-0.806-0.138-1.402,0.316-2.099C39.249,326.278,39.152,326.871,38.729,327.572z"/>
					<path style="fill:#FAE804;" d="M123.956,355.337c0.697-0.644,1.356-1.329,2.032-1.996c3.198-3.148,6.595-6.106,9.25-9.771
						c0.456-0.629,0.958-1.209,0.903-2.061c0.068-0.74-0.127-1.442-0.881-1.678c-0.765-0.24-1.63-0.364-2.261,0.369
						c-0.665,0.771-1.269,1.594-1.923,2.376c-2.996,3.586-6.556,6.613-9.83,9.925c-0.822,0.832-0.978,2.437-0.338,3.056
						C121.816,356.431,122.836,356.371,123.956,355.337z"/>
					<path style="fill:#2950B8;" d="M24.496,366.261c0.692,0.892,1.814,0.984,2.912,0.204c0.984-0.699,1.928-1.458,2.922-2.142
						c2.931-2.019,6.506-1.055,8.058,2.158c0.448,0.928,1.178,1.367,2.18,1.143c1.015-0.227,1.461-0.969,1.454-1.982
						c-0.009-1.37-0.62-2.499-1.572-3.412c-2.006-1.924-4.49-2.712-7.203-2.878c-1.333-0.088-2.585,0.205-3.723,0.849
						c-1.63,0.923-3.138,2.038-4.561,3.255C24.001,364.277,23.85,365.428,24.496,366.261z"/>
					<path style="fill:#2950B8;" d="M117.872,412.647c-1.148-2.936-3.24-5-5.929-6.525c-1.022-0.58-2.128-0.764-3.276-0.54
						c-1.087,0.212-1.733,1.039-1.684,2.065c0.049,1.045,0.738,1.726,1.947,1.738c0.797,0.008,1.425,0.297,2.043,0.73
						c1.54,1.079,2.736,2.429,3.352,4.234c0.629,1.842,1.228,3.693,1.868,5.531c0.375,1.078,1.234,1.583,2.265,1.394
						c0.933-0.171,1.508-0.969,1.495-2.28c-0.033-0.144-0.092-0.489-0.189-0.823C119.216,416.3,118.581,414.462,117.872,412.647z"/>
					<path style="fill:#FA73AA;" d="M42.868,352.11c-0.532-0.471-1.145-0.81-1.993-0.839c-0.683,0.121-1.267,0.519-1.578,1.269
						c-0.401,0.966,0.093,1.681,0.744,2.275c2.144,1.958,3.964,4.182,5.58,6.585c0.651,0.969,1.257,1.974,1.982,2.884
						c0.715,0.898,1.765,1.039,2.594,0.496c0.815-0.534,1.146-1.652,0.565-2.593C48.511,358.536,46.114,354.986,42.868,352.11z"/>
					<path style="fill:#2950B8;" d="M85.376,329.035c1.024-0.107,1.687-0.948,1.709-2.584c-0.658-3.574-1.87-7.435-2.936-11.329
						c-0.251-0.918-1.144-1.243-2.096-1.08c-1.154,0.197-1.668,1.307-1.399,2.767c0.655,3.56,2.021,6.943,2.581,10.53
						C83.426,328.564,84.297,329.147,85.376,329.035z"/>
					<path style="fill:#FAE804;" d="M126.93,315.533c-0.815-0.352-1.627-0.126-2.209,0.701c-0.431,0.612-0.587,1.307-0.815,1.985
						c-0.804,2.385-1.63,4.764-2.89,6.956c-0.635,1.106-0.515,2.303,0.35,2.842c1.3,0.81,2.446,0.071,2.989-0.843
						c0.912-1.538,1.659-3.167,2.263-4.836c0.581-1.603,1.309-3.178,1.508-4.894C128.272,316.455,127.652,315.845,126.93,315.533z"
						/>
					<path style="fill:#FAE804;" d="M150.817,349.091c2.44-0.956,5.01-1.58,7.34-2.81c0.79-0.417,1.504-0.961,1.402-1.969
						c0.185-1.711-1.562-2.437-3.148-1.589c-1.397,0.746-2.909,1.136-4.349,1.736c-1.403,0.584-2.934,0.86-4.193,1.797
						c-0.862,0.642-0.892,1.449-0.603,2.36c0.267,0.843,0.919,0.985,1.705,1.054C149.698,349.733,150.234,349.32,150.817,349.091z"
						/>
					<path style="fill:#2950B7;" d="M119.534,361.55c-2.03,0.985-4.035,2.021-6.023,3.089c-1.116,0.599-2.02,1.462-2.586,2.621
						c-0.543,1.113-0.273,2.249,0.633,2.773c0.898,0.519,1.953,0.277,2.639-0.73c0.576-0.847,1.352-1.366,2.242-1.797
						c1.47-0.712,2.934-1.438,4.376-2.204c0.821-0.436,1.454-1.057,1.45-2.09C122.264,361.785,120.875,360.9,119.534,361.55z"/>
					<path style="fill:#FA73AB;" d="M96.278,352.328c0.914,0.329,1.764,0.053,2.334-0.829c0.62-0.961,0.719-2.035,0.73-3.292
						c0.101-0.828-0.159-1.788-0.306-2.739c-0.242-1.567-0.49-3.167-1.398-4.539c-0.693-1.047-1.916-1.421-2.835-0.901
						c-0.903,0.511-1.213,1.595-0.705,2.642c1.156,2.383,1.56,4.854,1.036,7.475C94.935,351.135,95.325,351.986,96.278,352.328z"/>
					<path style="fill:#75C8B0;" d="M89.781,367.283c-0.583,0.779-1.152,1.569-1.695,2.376c-0.91,1.355-1.862,2.689-2.673,4.102
						c-0.899,1.567-0.049,3.255,1.742,3.29c0.647,0.11,1.155-0.383,1.515-1.012c1.435-2.502,3.054-4.874,4.852-7.127
						c0.603-0.755,0.67-1.599,0.113-2.369c-0.599-0.829-1.451-0.97-2.396-0.565C90.603,366.25,90.177,366.754,89.781,367.283z"/>
					<path style="fill:#75C8B0;" d="M134.472,401.403c-2.59-1.365-5.315-2.375-8.26-2.641c-0.428,0-0.872-0.072-1.282,0.014
						c-0.985,0.207-1.56,0.802-1.558,1.871c0.002,1.069,0.57,1.805,1.564,1.843c2.768,0.105,5.196,1.236,7.656,2.299
						c1.109,0.479,2.124,0.244,2.653-0.664C135.783,403.201,135.524,401.958,134.472,401.403z"/>
					<path style="fill:#76C8B0;" d="M22.341,354.026c1.129,0.027,2.203-0.931,2.195-1.957c-0.009-1.104-1.13-1.988-2.566-2.026
						c-1.348-0.035-2.052,0.558-2.088,1.761C19.844,353.043,20.894,353.992,22.341,354.026z"/>
					<path style="fill:#76C8B1;" d="M101.707,318.831c-0.009,1.127,0.792,1.981,1.856,1.978c1.107-0.003,2.057-0.994,2.035-2.123
						c-0.02-0.984-0.894-1.851-1.87-1.853C102.654,316.83,101.716,317.757,101.707,318.831z"/>
					<path style="fill:#77C9B1;" d="M149.172,324.338c-0.004-1.021-0.905-1.886-1.966-1.888c-1.161-0.002-2.024,0.837-2.018,1.962
						c0.006,1.125,0.741,1.807,1.955,1.813C148.369,326.232,149.176,325.481,149.172,324.338z"/>
					<path style="fill:#77C8B1;" d="M59.455,317.216c-0.024,1.196,0.798,1.983,2.073,1.983c1.078,0,1.926-0.843,1.909-1.898
						c-0.016-0.996-1.029-1.897-2.129-1.896C60.245,315.407,59.477,316.157,59.455,317.216z"/>
					<path style="fill:#FDBDD8;" d="M93.422,400.393c-3.568-7.37-8.884-13.125-15.9-17.318c-5.121-3.06-10.781-4.398-16.629-5.102
						c-2.38-0.287-4.767-0.327-7.328-0.301c0.855,1,1.147,1.916,0.363,2.865c-0.597,0.723-1.388,0.84-2.221,0.456
						c-0.563-0.26-0.85-0.736-0.978-1.365c-0.121-0.595,0.229-1.078,0.34-1.666c-1.167,0.056-2.142,0.468-3.146,0.757
						c-0.491,0.141-0.93,0.338-1.182,0.856c-0.988,2.024-1.701,4.149-2.586,6.508c0.868-0.298,1.457-0.494,2.042-0.702
						c3.713-1.317,7.488-2.414,11.359-3.162c2.327-0.449,3.623,0.264,4.515,2.461c0.161,0.397,0.298,0.804,0.45,1.204
						c1.799,4.74,3.053,9.649,4.506,14.497c0.879,2.93,0.898,2.894,3.995,2.682c4.317-0.297,8.637-0.54,12.956-0.813
						c1.779-0.112,2.986,0.691,3.698,2.286c0.238,0.533,0.46,1.075,0.649,1.626c0.972,2.841,1.631,5.769,2.345,8.68
						c0.19,0.775,0.392,0.954,1.089,0.405c1.469-1.157,2.975-2.272,4.512-3.338c0.616-0.427,0.71-0.867,0.599-1.57
						C96.312,406.813,94.964,403.577,93.422,400.393z M73.227,394.912c-1.024-0.035-1.811-0.879-1.78-1.909
						c0.031-1.041,0.842-1.797,1.899-1.771c1.037,0.026,1.829,0.859,1.793,1.889C75.102,394.144,74.245,394.946,73.227,394.912z
						 M92.95,407.198c-1.095,0.021-1.935-0.84-1.974-2.022c-0.036-1.093,0.781-1.968,1.85-1.981c1.08-0.012,1.976,0.892,1.995,2.014
						C94.839,406.285,93.998,407.178,92.95,407.198z"/>
					<path style="fill:#36BD8F;" d="M67.505,426.96c-0.033-1.443-0.937-1.787-2.197-1.932c-4.102-0.47-8.188-1.058-12.302-1.445
						c-2.533-0.238-3.578-1.459-3.861-4.033c-0.307-2.794-0.476-5.593-0.452-8.404c0.011-1.326-0.014-2.653-0.015-3.979
						c0-0.46-0.005-0.898-0.661-0.801c-3.577,0.271-7.105,0.907-10.645,1.465c-0.516,0.081-0.583,0.443-0.715,0.799
						c-1.125,3.032-2.237,6.069-3.378,9.095c-0.172,0.456-0.267,0.757,0.296,1.01c1.346,0.604,2.337,1.663,3.33,2.717
						c5.371,5.701,8.974,12.418,11.33,19.833c0.32,1.008,0.542,1.236,1.516,0.599c5.089-3.332,10.373-6.347,15.614-9.431
						c1.004-0.591,2.396-1.038,2.836-1.932c0.476-0.967-0.417-2.277-0.665-3.448C67.529,427.034,67.506,426.997,67.505,426.96z"/>
					<path style="fill:#FB72AA;" d="M84.639,407.436c-0.298-0.942-0.682-1.285-1.714-1.214c-4.667,0.319-9.338,0.621-14.013,0.78
						c-2.987,0.102-4.063-0.751-5.007-3.555c-1.812-5.387-3.05-10.953-5.071-16.28c-0.329-0.867-0.646-1.116-1.587-0.909
						c-4.733,1.04-9.288,2.633-13.834,4.27c-0.434,0.156-0.744,0.358-0.878,0.831c-0.382,1.342-0.795,2.675-1.259,4.221
						c0.505-0.164,0.799-0.251,1.087-0.355c3.372-1.226,6.786-2.303,10.332-2.91c2.894-0.495,4.35,0.607,4.522,3.507
						c0.332,5.604,0.615,11.209,1.546,16.761c0.164,0.976,0.558,1.174,1.441,1.17c4.487-0.024,8.974,0.021,13.461,0.009
						c2.208-0.006,3.8,0.922,4.814,2.89c0.857,1.665,1.634,3.367,2.282,5.121c0.255,0.691,0.514,0.744,1.065,0.362
						c1.695-1.177,3.397-2.345,5.111-3.494c0.408-0.273,0.565-0.531,0.42-1.047C86.41,414.218,85.697,410.783,84.639,407.436z"/>
					<path style="fill:#FDBDD8;" d="M75.358,419.11c-0.422-1.039-1.093-1.417-2.242-1.411c-4.642,0.027-9.287,0.025-13.927-0.115
						c-2.84-0.086-3.667-0.972-4.169-3.749c-0.98-5.422-1.377-10.903-1.614-16.397c-0.04-0.919-0.1-1.284-1.207-1.046
						c-3.597,0.773-7.039,1.991-10.477,3.262c-1.555,0.575-2.515,1.509-2.882,3.15c-0.158,0.707-0.2,0.881,0.618,0.725
						c3.181-0.608,6.405-0.906,9.629-1.189c1.972-0.173,3.221,0.858,3.414,2.83c0.061,0.62,0.045,1.247,0.061,1.871
						c0.097,3.742,0.03,7.487,0.359,11.227c0.103,1.172,0.51,1.487,1.601,1.563c4.319,0.299,8.594,0.989,12.881,1.57
						c2,0.271,3.142,1.362,3.584,3.299c0.274,1.202,0.621,2.387,0.964,3.688c1.838-1.151,3.535-2.251,5.274-3.282
						c0.542-0.321,0.414-0.649,0.242-1.053C76.764,422.406,76.032,420.77,75.358,419.11z"/>
					<path style="fill:#A0F1C8;" d="M34.539,424.661c-0.833-0.913-1.598-1.913-2.853-2.504c-0.606,1.732-1.136,3.441-1.806,5.092
						c-0.451,1.113-0.507,1.997,0.462,2.889c0.558,0.514,0.941,1.238,1.333,1.909c2.823,4.82,5.098,9.891,6.828,15.202
						c0.24,0.738,0.444,1.007,1.234,0.5c1.439-0.925,2.931-1.78,4.455-2.558c0.777-0.397,0.937-0.792,0.681-1.624
						C42.72,436.555,39.521,430.121,34.539,424.661z"/>
					<path style="fill:#6F8ADB;" d="M25.51,441.501c-1.368,5.513-2.701,10.74-3.288,16.289c3.006-1.347,5.453-3.163,8.067-4.69
						c0.336-0.196,0.394-0.408,0.249-0.766C29.072,448.74,27.796,445.059,25.51,441.501z"/>
					<path style="fill:#6F89D8;" d="M34.888,448.714c-1.762-5.32-4.058-10.397-6.959-15.4c-0.309,0.941-0.87,1.696-0.554,2.543
						c0.635,1.705,1.356,3.375,2.297,4.949c1.762,2.949,2.941,6.168,4.213,9.342c0.15,0.374,0.243,0.784,0.795,0.44
						c0.38-0.236,0.941-0.331,0.533-1.001C35.054,449.327,34.986,449.009,34.888,448.714z"/>
					<path style="fill:#C1D1F4;" d="M38.729,327.572c0.422-0.702,0.52-1.295,0.316-2.099
						C38.591,326.17,38.518,326.767,38.729,327.572z"/>
					<path style="fill:#050304;" d="M92.826,403.196c-1.069,0.012-1.886,0.887-1.85,1.981c0.039,1.182,0.879,2.042,1.974,2.022
						c1.048-0.02,1.889-0.913,1.871-1.988C94.802,404.089,93.907,403.184,92.826,403.196z"/>
					<path style="fill:#060304;" d="M73.345,391.232c-1.057-0.026-1.868,0.73-1.899,1.771c-0.031,1.03,0.757,1.874,1.78,1.909
						c1.019,0.034,1.875-0.768,1.911-1.791C75.174,392.091,74.382,391.258,73.345,391.232z"/>
				</g>
			</g>
			<g>
				<path d="M37.817,111.387c4.944,7.405,11.493,12.659,20.433,14.469c0.604,0.122,0.649,0.322,0.436,0.861
					c-0.43,1.084-0.817,2.191-1.139,3.312c-0.66,2.299-0.03,3.858,2.028,4.859c0.619,0.301,0.552,0.496,0.287,0.993
					c-1.293,2.429-1.927,4.985-1.538,7.77c0.356,2.547,1.531,4.726,2.893,6.825c2.089,3.218,3.879,6.549,4.818,10.322
					c0.864,3.473,0.522,6.599-1.737,9.492c-1.171,1.499-2.161,3.148-2.941,4.904c-1.859,4.187-2.656,8.397-0.323,12.692
					c0.65,1.197,1.325,2.386,1.896,3.621c0.574,1.24,1.003,2.526,0.709,3.951c-0.241,1.167,0.239,2.011,1.222,2.333
					c1.007,0.329,2.165-0.203,2.601-1.235c0.294-0.695,0.298-1.427,0.243-2.182c-0.208-2.899-1.544-5.363-2.937-7.807
					c-1.307-2.294-1.526-4.65-0.787-7.207c0.842-2.913,2.497-5.347,4.153-7.8c1.522-2.256,2.435-4.689,2.283-7.461
					c-0.255-4.66-1.787-8.908-4.143-12.889c-1.012-1.709-2.121-3.365-3.067-5.109c-1.584-2.922-1.394-5.844,0.286-8.677
					c0.648-1.094,1.444-1.876,2.864-2.112c2.782-0.462,3.742-2.149,3.124-4.93c-0.299-1.349-0.806-2.607-1.529-3.772
					c-0.337-0.544-0.229-0.673,0.377-0.8c7.736-1.621,13.744-5.921,18.412-12.153c6.163-8.228,8.703-17.647,8.867-27.519
					c-0.075-3.453-0.291-6.602-0.905-9.71c-1.948-9.848-6.129-18.495-13.972-25.006c-7.054-5.856-15.124-8.303-24.219-6.14
					c-8.377,1.992-14.529,7.153-19.101,14.257c-5.335,8.289-7.497,17.469-7.174,27.269C30.531,95.684,32.864,103.968,37.817,111.387
					z M64.873,131.617c-3.585,0.438-3.877,0.086-2.609-3.265c0.229-0.606,0.471-1.207,0.791-2.025
					c1.088,1.476,1.955,2.791,2.471,4.319C65.752,131.313,65.54,131.535,64.873,131.617z M41.754,60.127
					c4.285-6.099,10.011-10.273,17.533-11.409c5.858-0.885,11.331,0.493,16.278,3.725c6.664,4.354,10.844,10.622,13.484,18.002
					c1.763,4.926,2.634,10.016,2.598,15.261c-0.097,9.741-2.531,18.735-8.705,26.461c-4.121,5.156-9.283,8.812-15.923,9.88
					c-7.107,1.143-13.511-0.702-19.083-5.224c-7.129-5.785-11.118-13.481-12.842-22.336C32.699,82.183,34.429,70.552,41.754,60.127z
					"/>
				<path style="fill:#FB73AA;" d="M47.936,116.823c5.572,4.522,11.976,6.366,19.083,5.224c6.639-1.068,11.802-4.724,15.923-9.88
					c6.174-7.725,8.608-16.72,8.705-26.461c0.036-5.245-0.835-10.335-2.598-15.261c-2.641-7.381-6.82-13.648-13.484-18.002
					c-4.947-3.232-10.42-4.61-16.278-3.725c-7.522,1.136-13.248,5.31-17.533,11.409c-7.325,10.425-9.055,22.057-6.66,34.36
					C36.818,103.342,40.807,111.038,47.936,116.823z M86.529,81.924c0.01,1.05-0.76,1.846-1.809,1.868
					c-1.03,0.022-1.85-0.777-1.86-1.813c-0.01-1.054,0.762-1.85,1.805-1.862C85.712,80.106,86.518,80.888,86.529,81.924z
					 M76.532,60.625c0.32-0.865,1.474-1.424,2.422-1.218c0.922,0.2,1.588,0.772,2.146,1.51c2.021,2.669,2.695,5.825,3.268,9.014
					c0.289,1.607,0.534,3.223,0.745,4.506c-0.017,1.554-0.649,2.383-1.679,2.535c-0.999,0.147-1.906-0.49-2.136-1.705
					c-0.529-2.788-0.833-5.624-1.63-8.353c-0.461-1.58-0.871-3.215-2.577-4.101C76.272,62.387,76.223,61.46,76.532,60.625z"/>
				<path style="fill:#F671A8;" d="M63.055,126.327c-0.32,0.817-0.562,1.419-0.791,2.025c-1.268,3.351-0.976,3.703,2.609,3.265
					c0.667-0.081,0.878-0.303,0.653-0.97C65.01,129.118,64.143,127.803,63.055,126.327z"/>
				<path style="fill:#010101;" d="M77.091,62.813c1.706,0.886,2.116,2.521,2.577,4.101c0.797,2.729,1.101,5.565,1.63,8.353
					c0.231,1.215,1.137,1.852,2.136,1.705c1.029-0.152,1.661-0.981,1.679-2.535c-0.211-1.284-0.456-2.899-0.745-4.506
					c-0.573-3.19-1.247-6.345-3.268-9.014c-0.558-0.737-1.224-1.31-2.146-1.51c-0.948-0.205-2.102,0.353-2.422,1.218
					C76.223,61.46,76.272,62.387,77.091,62.813z"/>
				<path style="fill:#050203;" d="M82.86,81.979c0.01,1.036,0.83,1.835,1.86,1.813c1.049-0.022,1.819-0.818,1.809-1.868
					c-0.01-1.036-0.817-1.818-1.863-1.807C83.622,80.129,82.85,80.925,82.86,81.979z"/>
			</g>
			<g>
				<path d="M406.133,110.023c3.383,1.66,7.019,2.536,10.921,3.033c-0.697,0.834-1.284,1.506-1.836,2.205
					c-0.555,0.704-1.131,1.4-1.597,2.162c-1.201,1.963-0.51,3.807,1.676,4.523c0.625,0.205,1.285,0.368,1.938,0.409
					c0.752,0.047,0.913,0.418,0.857,1.061c-0.1,1.144-0.45,2.211-0.967,3.227c-0.9,1.769-1.866,3.507-2.696,5.309
					c-2.753,5.981-2.422,11.513,2.299,16.514c2.409,2.552,2.489,5.622,0.543,8.522c-1.371,2.042-2.651,4.13-3.397,6.501
					c-1.256,3.989-0.036,7.832,3.24,10.176c1.146,0.82,2.314,0.764,3.029-0.145c0.68-0.865,0.524-2.023-0.563-2.862
					c-2.71-2.092-2.66-4.492-1.581-7.078c0.893-2.141,2.316-3.964,3.48-5.941c0.945-1.605,1.261-3.296,1.057-5.161
					c-0.31-2.833-1.458-5.216-3.41-7.261c-2.112-2.212-2.874-4.848-2.36-7.858c0.482-2.823,1.917-5.249,3.222-7.727
					c1.079-2.047,2.09-4.107,1.987-6.51c-0.017-0.39,0.078-0.588,0.522-0.733c2.064-0.677,2.617-1.704,2.178-3.81
					c-0.223-1.068-0.421-2.14-0.622-3.212c-0.136-0.725-0.6-1.686-0.302-2.119c0.375-0.547,1.434-0.341,2.197-0.464
					c18.244-2.935,30.919-19.927,28.508-38.213c-2.477-18.786-19.803-32.015-38.547-29.431
					c-18.584,2.561-31.685,19.618-29.137,38.285C388.438,95.658,395.014,104.566,406.133,110.023z M417.864,118.465
					c0.568-1.06,1.268-1.922,2.256-2.785c0.15,0.902,0.272,1.637,0.421,2.535C419.524,117.823,418.691,118.006,417.864,118.465z
					 M420.58,48.768c17.22,0.095,30.081,13.9,30.243,29.826c0.175,17.176-13.383,30.024-29.07,30.637
					c-16.722,0.653-31.575-12.901-31.448-30.408C390.425,62.232,403.983,48.72,420.58,48.768z"/>
				<path style="fill:#FAE803;" d="M421.753,109.231c15.687-0.613,29.245-13.461,29.07-30.637
					c-0.162-15.926-13.023-29.731-30.243-29.826c-16.597-0.048-30.155,13.464-30.275,30.055
					C390.178,96.33,405.031,109.884,421.753,109.231z M443.732,74.266c-0.015,1.224-1.043,2.192-2.297,2.164
					c-1.097-0.025-1.945-0.862-1.946-1.922c-0.001-1.172,1.18-2.274,2.396-2.235C442.975,72.309,443.746,73.14,443.732,74.266z
					 M434.525,58.109c1.191-0.007,2.203,0.47,3.088,1.212c2.487,2.084,3.831,4.864,4.637,7.923c0.321,1.219-0.327,2.232-1.356,2.474
					c-1.068,0.251-1.984-0.298-2.385-1.525c-0.559-1.712-1.233-3.364-2.347-4.794c-0.497-0.638-1.018-1.272-1.932-1.381
					c-1.511-0.18-2.275-0.896-2.214-2.005C432.079,58.875,433.097,58.101,434.525,58.109z"/>
				<path style="fill:#DBCC18;" d="M417.864,118.465c0.827-0.459,1.66-0.643,2.678-0.25c-0.149-0.898-0.271-1.633-0.421-2.535
					C419.132,116.543,418.431,117.405,417.864,118.465z"/>
				<path style="fill:#010102;" d="M434.231,62.017c0.914,0.109,1.435,0.743,1.932,1.381c1.114,1.43,1.788,3.082,2.347,4.794
					c0.401,1.228,1.316,1.776,2.385,1.525c1.029-0.242,1.677-1.255,1.356-2.474c-0.806-3.059-2.15-5.838-4.637-7.923
					c-0.885-0.742-1.897-1.218-3.088-1.212c-1.428-0.008-2.446,0.766-2.509,1.903C431.955,61.121,432.719,61.837,434.231,62.017z"/>
				<path style="fill:#040302;" d="M439.489,74.508c0.001,1.06,0.849,1.897,1.946,1.922c1.254,0.028,2.281-0.94,2.297-2.164
					c0.014-1.126-0.757-1.957-1.847-1.993C440.669,72.234,439.487,73.337,439.489,74.508z"/>
			</g>
		</g>
		<g>
			<path style="fill:#FB73AA;" d="M241.787,66.511c-0.155-0.304-0.459-0.616-0.8-0.857c-0.097-0.127-0.194-0.255-0.291-0.382
				c-0.6-0.657-1.647-1.045-2.522-1.045c-0.915,0-1.876,0.398-2.522,1.045c-0.619,0.619-1.083,1.632-1.045,2.522
				c0.039,0.922,0.343,1.881,1.045,2.522c0.682,0.623,1.572,1.085,2.522,1.045c0.302-0.039,0.603-0.077,0.905-0.116
				c0.474-0.105,0.886-0.318,1.237-0.638c0.293-0.186,0.523-0.434,0.725-0.712c0.21-0.149,0.397-0.32,0.536-0.54
				c0.334-0.438,0.574-0.995,0.55-1.561C242.106,67.344,241.992,66.912,241.787,66.511z"/>
			<path style="fill:#FAE803;" d="M300.127,54.978c-0.956-2.644-5.144-2.47-5.115,0.659c0.023,2.442,0.037,4.747-0.736,7.097
				c-0.745,2.268-2.132,4.215-3.325,6.261c-1.85,3.174,2.329,5.936,4.91,3.74C300.545,68.749,302.185,60.671,300.127,54.978z"/>
			<path style="fill:#36BD8F;" d="M136.848,71.955c-2.73-2.066-5.372-4.046-7.117-7.066c-0.818-1.415-1.447-2.934-1.804-4.533
				c-0.345-1.548-0.259-2.914-1.131-4.276c-0.756-1.18-2.284-1.124-3.05,0c-2.159,3.168-0.018,8.815,1.538,11.917
				c2.026,4.038,5.23,7.426,9.553,8.901C137.989,77.975,139.058,73.628,136.848,71.955z"/>
			<path style="fill:#36BD8F;" d="M44.098,186.334c-3.745-2.909-6.843-6.242-8.456-10.795c-0.237-0.669-0.555-2.24-0.746-4.058
				c0.98,0.115,1.981,0.092,2.983-0.115c3.608-0.742,6.134-3.75,5.823-7.502c-0.25-3.018-2.632-5.591-5.797-5.427
				c-3.65,0.189-6.126,3.862-7.036,7.081c-1.293-1.125-2.295-2.6-2.93-4.175c-2.281-5.66,0.744-9.664,4.652-13.355
				c0.882-0.833-0.014-2.548-1.22-2.126c-8.225,2.882-9.735,14.251-4.854,20.58c1.017,1.319,2.304,2.49,3.752,3.38
				c-0.084,7.806,4.856,16.038,11.268,19.873C43.542,190.894,46.034,187.837,44.098,186.334z M38.467,163.097
				c1.396,0.594,1.616,1.692,0.778,2.984c-0.939,1.446-2.89,1.643-4.484,1.363C34.925,164.413,35.844,161.981,38.467,163.097z"/>
			<path style="fill:#FB73AA;" d="M470.764,145.85c-2.539-3.512-5.659-6.321-7.486-10.343c-1.924-4.236-2.513-8.92-2.18-13.527
				c0.267-3.693-5.82-4.533-6.483-0.836c-1.81,10.094,1.304,24.428,11.202,29.653C468.721,152.33,472.991,148.932,470.764,145.85z"
				/>
			<path style="fill:#708ADB;" d="M371.542,170.082c-1.656,5.312-3.544,10.61-4.858,16.017c-0.955,3.926,5.124,5.541,6.083,1.595
				c1.317-5.418,2.075-11.002,3.045-16.492C376.302,168.428,372.398,167.335,371.542,170.082z"/>
			<path style="fill:#2950B8;" d="M465.379,267.592c-4.639-0.433-8.038-5.271-6.723-9.712c0.967-3.267-3.871-4.387-5.03-1.319
				c-2.939,7.776,3.384,17.187,11.753,17.017C469.298,273.498,469.159,267.945,465.379,267.592z"/>
			<path style="fill:#2950B8;" d="M36.396,249.523c-2.95-0.342-6.07-1.78-7.073-4.77c-1.134-3.379,1.116-5.25,1.99-8.176
				c0.399-1.337-0.946-2.598-2.252-2.252c-4.919,1.306-5.955,8.857-4.52,12.948c1.814,5.169,7.164,8.337,12.499,7.247
				C40.092,253.896,39.043,249.83,36.396,249.523z"/>
			<path style="fill:#FAE803;" d="M100.441,178.388c-0.384-0.751-1.263-1.383-2.067-1.589c-0.271-0.07-0.542-0.139-0.813-0.208
				c-0.412-0.146-0.841-0.231-1.286-0.202c-0.975,0.064-1.878,0.363-2.586,1.071c-0.634,0.634-1.11,1.674-1.071,2.586
				c0.041,0.945,0.352,1.928,1.071,2.586c0.26,0.198,0.52,0.397,0.78,0.595c0.561,0.315,1.163,0.474,1.806,0.476
				c0.445,0.029,0.875-0.057,1.286-0.202c0.271-0.07,0.542-0.139,0.813-0.209c0.269-0.109,0.537-0.218,0.806-0.328
				c0.414-0.216,0.744-0.518,0.988-0.904c0.214-0.215,0.359-0.469,0.437-0.761c0.198-0.39,0.289-0.808,0.273-1.254
				C100.853,179.464,100.706,178.906,100.441,178.388z"/>
			<path style="fill:#FAE803;" d="M357.779,34.744c-0.196-0.149-0.391-0.299-0.587-0.448c-0.422-0.237-0.875-0.356-1.359-0.358
				l-1.248-0.148c-0.687-0.082-1.586,0.385-2.05,0.849c-0.503,0.503-0.88,1.327-0.849,2.05c0.032,0.749,0.279,1.529,0.849,2.05
				c0.528,0.483,1.305,0.938,2.05,0.849l1.248-0.148c0.366,0.014,0.709-0.061,1.028-0.224c0.354-0.11,0.659-0.304,0.917-0.582
				c0.477-0.477,0.835-1.259,0.806-1.945C358.554,35.978,358.32,35.239,357.779,34.744z"/>
			<path style="fill:#FAE803;" d="M74.956,26.402c-0.094-0.424-0.285-0.792-0.569-1.107l-0.016-0.092
				c-0.086-0.211-0.171-0.421-0.257-0.632c-0.17-0.325-0.406-0.583-0.708-0.775c-0.443-0.338-1.006-0.581-1.579-0.556
				c-0.455,0.019-0.893,0.135-1.299,0.342c-0.544,0.278-1.139,1.007-1.245,1.621c-0.003,0.016-0.006,0.032-0.008,0.049
				c-0.426,0.553-0.682,1.309-0.682,1.971c0,0.83,0.361,1.701,0.947,2.287c0.561,0.561,1.48,0.982,2.287,0.947
				c0.836-0.036,1.705-0.311,2.287-0.947c0.565-0.618,0.984-1.426,0.947-2.287C75.026,26.949,74.991,26.675,74.956,26.402z"/>
			<path style="fill:#FC7346;" d="M29.214,38.447c-0.265-2.915-1.336-7.32-4.433-8.323c-0.72-0.233-1.553,0.42-1.516,1.17
				c0.125,2.522,1.868,4.477,1.945,7.153c0.088,3.057-1.315,5.323-2.556,7.981c-0.967,2.072,1.365,3.744,3.099,2.36
				C28.708,46.429,29.542,42.048,29.214,38.447z"/>
			<path style="fill:#FC7346;" d="M459.258,24.754c-2.43-0.891-4.251,2.633-2.469,4.303c1.739,1.63,3.533,3.089,4.754,5.176
				c1.199,2.05,1.766,4.394,2.974,6.427c1.096,1.846,4.236,1.644,4.721-0.617C470.583,33.78,464.863,26.809,459.258,24.754z"/>
			<path style="fill:#FC7346;" d="M192.191,31.921c-4.402,0-4.404,6.832,0,6.832C196.594,38.753,196.596,31.921,192.191,31.921z"/>
			<path style="fill:#36BD8F;" d="M263.476,36.254c-1.889-1.43-3.65-2.5-4.429-4.895c-0.807-2.479,0.221-4.221,0.773-6.562
				c0.308-1.306-1.074-2.358-2.253-1.732c-6.546,3.474-2.115,16.952,4.998,16.637C264.545,39.614,264.895,37.328,263.476,36.254z"/>
			<path style="fill:#FB73AA;" d="M357.584,75.577c-0.997-1.556-1.996-3.274-2.322-5.116c-0.328-1.856,0.096-3.718,0.152-5.581
				c0.056-1.85-2.442-2.919-3.716-1.539c-3.946,4.276-2.649,11.931,1.166,15.83C355.181,81.538,359.435,78.466,357.584,75.577z"/>
			<path style="fill:#708ADB;" d="M379.435,316.021c-3.41-3.264-5.715-7.378-4.756-12.22c0.637-3.218-4.084-4.526-4.972-1.304
				c-1.824,6.622,0.376,14.233,6.424,17.861C378.779,321.948,381.686,318.177,379.435,316.021z"/>
			<path style="fill:#FAE803;" d="M43.426,281.46c-3.506,0-3.508,5.441,0,5.441C46.932,286.901,46.934,281.46,43.426,281.46z"/>
			<path style="fill:#FAE803;" d="M132.399,154.349c-0.044-1.028-0.683-1.983-1.684-2.297c-0.641-0.55-1.48-0.83-2.371-0.715
				c-0.69,0.089-1.266,0.38-1.777,0.847c-0.54,0.493-0.928,1.434-0.897,2.166c0.033,0.259,0.066,0.518,0.1,0.777
				c0.09,0.407,0.273,0.761,0.548,1.062c0.223,0.352,0.524,0.627,0.902,0.825l0.736,0.299c0.685,0.211,1.683,0.083,2.289-0.299
				c0.16-0.101,0.287-0.231,0.426-0.351C131.638,156.377,132.443,155.379,132.399,154.349z"/>
			<path style="fill:#708ADB;" d="M145.663,442.959c-0.583-0.533-1.346-0.929-2.159-0.894c-0.258,0.033-0.516,0.066-0.774,0.099
				c-0.532,0.141-0.993,0.406-1.385,0.795c-0.245,0.206-0.489,0.412-0.734,0.618c-0.253,0.214-0.456,0.43-0.661,0.691
				c-0.315,0.292-0.534,0.638-0.659,1.038c-0.184,0.362-0.268,0.75-0.253,1.164c0,0.764,0.339,1.678,0.912,2.202
				c0.595,0.544,1.372,0.948,2.202,0.912l0.79-0.101c0.543-0.144,1.013-0.414,1.412-0.811c0.263-0.206,0.477-0.407,0.691-0.661
				c0.206-0.245,0.412-0.489,0.618-0.734c0.309-0.286,0.524-0.625,0.646-1.018c0.181-0.355,0.263-0.735,0.248-1.141
				C146.558,444.369,146.225,443.473,145.663,442.959z"/>
			<path style="fill:#FB73AA;" d="M104.472,471.876c-0.035-0.076-0.071-0.152-0.106-0.229c-0.082-0.29-0.189-0.57-0.33-0.819
				c-0.363-0.639-0.899-1.087-1.506-1.472c-0.173-0.11-0.351-0.213-0.526-0.319l-0.864-0.351c-0.456-0.137-0.913-0.156-1.369-0.059
				c-0.316,0.001-0.612,0.079-0.888,0.234c-0.462,0.144-0.862,0.398-1.199,0.761c-0.431,0.472-0.748,1.02-0.937,1.631
				c-0.137,0.456-0.156,0.912-0.059,1.369c0.021,0.471,0.157,0.911,0.41,1.32c0.107,0.175,0.212,0.351,0.319,0.526
				c0.373,0.603,0.823,1.175,1.472,1.506c0.252,0.129,0.512,0.23,0.777,0.311c0.09,0.042,0.181,0.084,0.271,0.126
				c0.266,0.108,0.532,0.216,0.799,0.325c0.422,0.126,0.844,0.144,1.265,0.054c0.703-0.09,1.438-0.382,1.93-0.92
				c0.399-0.436,0.691-0.943,0.866-1.508C105.056,473.521,104.827,472.641,104.472,471.876z"/>
			<path style="fill:#FC7346;" d="M375.252,468.926c-2.02-1.792-4.242-2.717-5.427-5.34c-1.159-2.567-1.018-5.32,0.469-7.695
				c1.793-2.865-2.618-5.244-4.51-2.561c-2.47,3.505-2.839,8.076-1.414,12.075c1.323,3.715,4.705,8.117,9.067,7.901
				C375.51,473.203,377.009,470.485,375.252,468.926z"/>
			<path style="fill:#FAE803;" d="M307.147,470.635c-3.716,0-3.717,5.766,0,5.766C310.862,476.402,310.864,470.635,307.147,470.635z
				"/>
			<path style="fill:#FC7346;" d="M194.159,462.546c-1.111-0.661-2.356,0.048-2.744,1.157c-0.424,1.213,0.163,2.325,0.041,3.561
				c-0.126,1.268-0.737,2.482-1.502,3.483c-1.634,2.136-4.18,3.343-6.831,2.576c-2.107-0.609-2.796,2.466-0.845,3.224
				c3.837,1.491,8.157-0.072,10.852-3.029C195.365,471.065,197.941,464.797,194.159,462.546z"/>
			<path style="fill:#2950B8;" d="M426.159,288.165c-3.579,0-3.581,5.555,0,5.555C429.738,293.72,429.74,288.165,426.159,288.165z"
				/>
			<path style="fill:#FAE803;" d="M476.772,362.047c-0.194-0.148-0.387-0.296-0.581-0.443c-0.418-0.235-0.866-0.353-1.345-0.355
				c-0.338-0.029-0.635-0.05-0.976-0.007c-0.54,0.069-0.962,0.276-1.391,0.578c-0.394,0.227-0.704,0.537-0.931,0.931
				c-0.213,0.38-0.321,0.787-0.322,1.223c0.001,0.435,0.109,0.843,0.322,1.223c0.227,0.394,0.537,0.704,0.931,0.931
				c0.428,0.301,0.853,0.509,1.391,0.578c0.344,0.044,0.636,0.022,0.976-0.007c0.734-0.062,1.389-0.26,1.926-0.798
				c0.473-0.473,0.827-1.247,0.798-1.926C477.54,363.269,477.308,362.537,476.772,362.047z"/>
			<path style="fill:#FAE803;" d="M28.549,392.619c-3.17,0-3.172,4.92,0,4.92C31.72,397.539,31.721,392.619,28.549,392.619z"/>
			<path style="fill:#FAE803;" d="M69.952,453.609c-1.59-1.738-4.145,0.457-3.17,2.414c2.358,4.732,1.079,11.065-4.752,12.412
				c-2.088,0.482-1.216,3.523,0.832,3.173C70.356,470.328,75.499,459.672,69.952,453.609z"/>
			<path style="fill:#708ADB;" d="M433.165,467.967c-0.072-0.561-0.305-1.147-0.734-1.539c-0.348-0.318-0.752-0.551-1.203-0.69
				c-0.585-0.181-1.466-0.076-1.983,0.259c-0.258,0.167-0.517,0.334-0.777,0.499c-0.017,0.004-0.034,0.008-0.051,0.012
				c-1.113,0.264-2.012,1.204-2.299,2.299c-0.287,1.098,0.036,2.292,0.839,3.094c0.803,0.803,1.996,1.126,3.094,0.839
				c1.095-0.286,2.035-1.186,2.299-2.299c0.004-0.017,0.008-0.034,0.012-0.051c0.165-0.26,0.332-0.519,0.499-0.777
				c0.086-0.212,0.173-0.425,0.259-0.637C433.223,468.64,433.237,468.303,433.165,467.967z"/>
			<path style="fill:#708ADB;" d="M464.109,195.772c-3.489,0-3.49,5.414,0,5.414C467.598,201.186,467.599,195.772,464.109,195.772z"
				/>
			<path style="fill:#36BD8F;" d="M475.896,93.732c-0.003-0.036-0.005-0.072-0.008-0.107c0.017-0.451-0.075-0.873-0.276-1.267
				c-0.136-0.436-0.375-0.813-0.717-1.13c-0.588-0.588-1.552-1.029-2.397-0.993c-0.876,0.037-1.788,0.326-2.397,0.993
				c-0.184,0.241-0.368,0.482-0.552,0.723c-0.292,0.52-0.439,1.078-0.441,1.675c-0.003,0.036-0.006,0.072-0.008,0.107
				c0.002,0.598,0.15,1.157,0.442,1.679c0.012,0.02,0.029,0.034,0.041,0.054c0.028,0.1,0.057,0.2,0.085,0.3
				c0.181,0.638,0.548,1.164,1.074,1.565c0.492,0.376,1.119,0.646,1.757,0.619c0.507-0.022,0.993-0.15,1.445-0.381
				c0.671-0.343,1.185-1.095,1.386-1.803c0.028-0.1,0.057-0.2,0.085-0.3c0.012-0.02,0.029-0.034,0.041-0.054
				C475.747,94.889,475.894,94.33,475.896,93.732z"/>
		</g>
		<g>
			<path d="M135.354,127.485c5.703,4.913,12.359,6.946,19.817,6.445c0.858-0.058,1.122,0.106,1.189,0.991
				c0.721,9.592,3.203,18.795,6.269,27.861c0.6,1.776,1.992,2.457,3.866,2.068c0.819-0.17,1.326-0.577,1.099-1.437
				c-0.511-1.932,0.181-3.678,0.697-5.469c1.395-4.85,3.169-9.537,5.916-13.802c1.52-2.36,3.164-4.623,5.491-6.42
				c1.2,2.25,1.148,4.588,0.949,6.915c-0.276,3.224-0.716,6.434-0.975,9.659c-0.301,3.737-0.471,7.484,0.613,11.152
				c0.785,2.658,2.407,4.422,5.259,4.828c2.887,0.41,5.225-0.459,6.885-2.946c0.63-0.944,1.197-1.916,1.674-2.945
				c1.926-4.144,3.19-8.541,4.892-12.77c0.493-1.225,0.981-2.451,1.519-3.796c1.672,3.452,3.81,4.581,6.942,3.795
				c1.256-0.315,2.239-1.074,3.139-1.954c1.318-1.289,2.373-2.79,3.409-4.305c1.485-2.172,2.795-4.45,4.116-6.753
				c0.061,0.63,0.019,1.232-0.008,1.835c-0.113,2.517,0.161,4.966,1.038,7.359c1.59,4.338,7.233,4.454,9.427,1.769
				c0.842-1.031,1.67-2.063,2.299-3.233c0.837-1.559,1.625-3.145,2.575-4.995c-0.034,0.719-0.031,1.133-0.075,1.542
				c-0.821,7.575-1.185,15.169-0.883,22.785c0.165,4.167,0.341,8.337,1.106,12.456c0.237,1.276,1.058,1.864,2.205,2.107
				c1.36,0.288,2.732,0.406,3.896-0.573c0.404-0.339,0.408-0.921,0.46-1.415c0.103-0.969,0.194-1.944,0.2-2.917
				c0.033-5.892,0.058-11.785,0.538-17.662c0.207-2.535,0.486-5.064,0.738-7.654c0.622,0.242,1.082,0.46,1.565,0.599
				c0.484,0.139,0.988,0.234,1.489,0.288c4.843,0.517,8.487-1.49,11.16-5.414c1.931-2.835,3.092-6.018,4.007-9.304
				c0.382-1.373,0.129-3.152,1.108-4.055c1.01-0.932,2.682-1.15,4.068-1.669c1.611-0.602,3.227-1.191,4.962-1.83
				c-0.062,0.354-0.073,0.508-0.116,0.652c-2.736,9.129-4.185,18.463-4.425,27.984c-0.154,6.097,0.106,12.168,1.476,18.141
				c0.573,2.498,2.149,3.438,4.664,2.977c0.984-0.181,1.357-0.623,1.372-1.639c0.101-6.954,0.698-13.856,2.089-20.687
				c1.928-9.467,4.497-18.716,8.957-27.348c1.327-2.568,2.778-5.062,4.912-7.065c2.6-2.441,3.989-1.676,5.054,1.515
				c0.061,0.184,0.084,0.38,0.119,0.572c0.381,2.096,0.237,4.187,0.033,6.293c-0.082,0.848-0.392,1.292-1.13,1.68
				c-3.639,1.913-7.066,4.149-10.014,7.041c-1.565,1.535-2.954,3.23-3.79,5.289c-0.88,2.168-0.108,4.192,1.969,5.213
				c1.86,0.914,3.841,1.029,5.828,0.607c3.637-0.772,6.16-3.088,8.019-6.162c2.148-3.552,3.309-7.461,3.879-11.558
				c0.05-0.358-0.06-0.784,0.403-1.018c2.071-1.044,4.132-2.108,6.236-3.186c0.015,0.19,0.043,0.268,0.022,0.33
				c-0.137,0.405-0.283,0.808-0.431,1.21c-1.235,3.35-2.248,6.749-1.931,10.378c0.288,3.3,1.47,6.121,4.787,7.426
				c3.361,1.322,6.658,1.076,9.729-0.934c2.828-1.852,5.274-4.135,7.433-6.73c2.449-2.945,4.569-6.125,6.662-9.324
				c0.607-0.927,1.24-1.837,2.009-2.973c1.025,6.51,1.641,12.743,1.182,19.035c-0.199,2.729-0.776,5.394-1.766,7.964
				c-0.262,0.68-0.625,1.044-1.343,1.262c-6.274,1.907-12.664,3.325-19.072,4.685c-4.811,1.021-9.575,2.209-14.019,4.404
				c-1.971,0.973-3.823,2.125-5.319,3.76c-2.012,2.199-1.787,4.509,0.582,6.329c1,0.768,2.124,1.304,3.312,1.709
				c4.817,1.642,9.729,1.71,14.676,0.785c6.142-1.149,11.562-3.937,16.576-7.557c5.067-3.659,9.669-7.783,12.64-13.422
				c0.241-0.456,0.628-0.533,1.015-0.683c1.814-0.708,3.66-1.344,5.44-2.128c6.629-2.918,12.803-6.51,17.467-12.232
				c6.773-8.307,9.04-17.589,5.64-27.905c-2.399-7.279-6.697-13.352-12.635-18.216c-7.63-6.25-16.349-9.756-26.24-10.188
				c-5.285-0.231-10.53-0.048-15.616,1.672c-11.525,3.898-20.036,11.8-27.71,20.816c-0.663,0.779-0.44,1.537,0.257,2.156
				c0.566,0.503,1.279,0.737,2.032,0.816c2.314,0.242,4.263-0.365,5.863-2.182c3.584-4.068,7.083-8.228,11.184-11.8
				c9.61-8.371,20.617-11.319,32.86-7.419c10.723,3.415,18.42,10.581,22.991,20.931c4.533,10.265,3.418,19.908-3.441,28.822
				c-3.942,5.122-9.126,8.677-14.836,11.539c-0.779,0.391-1.573,0.75-2.491,1.185c1.168-5.808,0.951-11.426-0.064-17.031
				c-0.593-3.274-1.357-6.503-3.337-9.279c-2.494-3.496-7.071-3.409-9.319,0.173c-2.742,4.367-5.715,8.562-9.15,12.418
				c-2.375,2.667-4.993,5.045-8.154,6.762c-1.176,0.639-1.316,0.587-1.835-0.681c-0.846-2.067-1.032-4.229-0.833-6.432
				c0.394-4.353,1.744-8.465,3.261-12.523c0.832-2.225,1.805-4.398,2.689-6.604c0.572-1.426,0.249-1.896-1.29-2.077
				c-1.281-0.151-2.267,0.369-3.143,1.232c-1.723,1.696-2.954,3.751-3.945,5.902c-0.789,1.714-1.848,2.745-3.698,3.252
				c-1.736,0.476-3.363,1.351-5.099,2.077c-0.059-0.9-0.089-1.674-0.165-2.443c-0.49-4.954-3.572-7.81-8.307-7.639
				c-2.627,0.095-4.474,1.667-6.124,3.495c-2.509,2.778-4.244,6.053-5.878,9.382c-0.706,1.439-1.353,2.907-2.027,4.362
				c0.108-1.942,0.4-3.826,0.691-5.71c0.522-3.389,1.273-6.742,1.59-10.163c0.054-0.586,0.095-1.156-0.545-1.536
				c-1.417-0.841-3.2-0.495-4.132,0.884c-0.897,1.327-1.769,2.731-2.161,4.256c-0.714,2.779-2.417,4.137-5.15,4.716
				c-1.992,0.422-3.893,1.27-5.898,1.95c0-1.387,0.041-2.633-0.009-3.875c-0.089-2.19-0.729-4.221-1.988-6.025
				c-2.272-3.255-6.569-3.709-9.464-1.002c-0.596,0.557-1.141,1.176-1.666,1.802c-1.929,2.302-3.392,4.903-4.807,7.558
				c0.117-1.675,0.323-3.322,0.511-4.971c0.309-2.711,0.765-5.41,0.775-8.147c0.005-1.483-0.63-2.033-2.111-1.986
				c-0.807,0.025-1.396,0.429-1.873,1.042c-0.58,0.745-1.004,1.582-1.375,2.442c-1.776,4.117-2.998,8.438-4.631,12.61
				c-1.96,5.008-3.831,10.049-6.56,14.71c-0.876,1.497-1.826,2.945-3.217,4.121c-0.563-1.709-0.508-3.364-0.281-4.971
				c0.516-3.664,1.155-7.309,2.238-10.863c1.034-3.391,2.055-6.786,2.998-10.202c0.777-2.816-0.259-4.282-3.454-4.529
				c-1.622-0.125-2.128,0.322-2.668,1.861c-0.314,0.895-0.408,1.893-1.159,2.672c-1.07-1.144-2.344-1.9-3.811-2.245
				c-4.339-1.02-8.276-0.151-11.465,2.997c-3.733,3.685-5.577,8.385-6.613,13.442c-0.18,0.875-0.238,1.777-0.621,2.608
				c-3.197,6.938-6.105,14-9.021,21.06c-0.755,1.827-1.613,3.619-2.951,5.44c-0.464-2.31-0.504-4.409-0.499-6.518
				c0.011-4.683-0.008-9.366-0.02-14.049c-0.008-3.27-1.194-5.972-3.733-8.106c-2.163-1.818-5.2-1.95-7.415-0.165
				c-1.533,1.236-2.722,2.785-3.871,4.363c-2.736,3.758-4.658,7.909-5.91,12.465c-0.431-0.671-0.372-1.359-0.495-1.995
				c-1.168-6.052-2.107-12.134-2.435-18.3c-0.039-0.738,0.117-1.085,0.867-1.329c4.574-1.489,8.689-3.866,12.457-6.815
				c9.419-7.371,17.047-16.332,23.161-26.579c4.468-7.489,8.029-15.348,8.788-24.183c0.411-4.779,0.142-9.52-1.692-14.042
				c-1.413-3.482-4.006-5.555-7.674-6.351c-5.469-1.187-10.434,0.248-15.151,2.896c-6.811,3.824-11.731,9.545-15.475,16.235
				c-7.968,14.239-11.825,29.677-12.81,45.89c-0.199,3.275-0.116,6.552,0.011,9.828c0.015,0.391,0.208,0.915-0.491,0.954
				c-1.282,0.072-2.555,0.49-3.84,0.263c-7.288-1.286-10.229-4.436-11.617-11.383c-0.597-2.991,0.226-5.886,0.903-8.767
				c0.427-1.816-0.123-2.657-1.992-2.787c-1.245-0.086-2.495-0.087-3.741-0.155c-1.123-0.061-1.876,0.399-2.518,1.344
				c-1.289,1.897-1.702,4.073-2.237,6.223c-0.681,2.736-0.321,5.333,0.985,7.821C132.364,124.421,133.714,126.073,135.354,127.485z
				 M285.79,146.671c-0.156,0.117-0.308,0.255-0.485,0.324c-0.578,0.228-1.068,0.956-1.784,0.482
				c-0.813-0.538-1.147-1.377-1.049-2.335c0.11-1.081,0.703-1.967,1.296-2.841c2.347-3.455,5.766-5.635,9.306-7.717
				C291.561,139.176,289.858,143.636,285.79,146.671z M315.902,171.296c-3.439,1.81-7.049,3.116-10.977,3.38
				c-1.939,0.13-3.826-0.061-5.594-0.894c-1.872-0.881-2.196-2.345-0.902-3.976c0.935-1.178,2.161-2.019,3.458-2.749
				c3.324-1.872,6.92-3.012,10.61-3.886c5.948-1.409,11.987-2.412,18.18-4.113C326.56,164.418,321.591,168.302,315.902,171.296z
				 M251.456,121.441c0.193-0.244,0.391-0.488,0.609-0.71c0.561-0.574,1.141-1.514,1.901-1.318c0.75,0.194,0.927,1.276,1.159,2.055
				c1.063,3.572,0.411,7.107-0.269,10.64c-0.103,0.534-0.524,0.622-0.906,0.792c-1.889,0.838-3.753,1.724-5.515,2.812
				c-1.765,1.091-3.316,2.444-4.854,3.883C245.042,133.036,247.219,126.789,251.456,121.441z M243.565,145.851
				c0.189-0.965,0.545-1.867,1.073-2.694c2.3-3.603,5.4-6.283,9.534-8.186c-1.255,4.208-2.559,8.096-5.218,11.363
				c-0.894,1.098-1.971,1.971-3.316,2.497c-0.925,0.361-1.497,0.027-1.871-0.808C243.453,147.324,243.42,146.594,243.565,145.851z
				 M211.97,125.346c0.96-1.213,2.195-2.085,3.642-2.66c0.578-0.23,1.02-0.145,1.482,0.281c1.03,0.948,1.674,2.137,2.251,3.38
				c0.152,0.328,0.073,0.571-0.139,0.848c-2.382,3.12-3.853,6.753-5.713,10.168c-1.995,3.663-4.3,7.112-7.183,10.226
				C205.425,139.464,206.772,131.908,211.97,125.346z M163.259,126.734c0.058-1.558,0.016-3.119,0.016-4.282
				c1.05-16.592,4.43-32.198,11.689-46.797c3.086-6.207,7.159-11.714,13.013-15.677c2.111-1.429,4.365-2.577,6.844-3.218
				c2.658-0.687,4.284-0.086,5.866,2.185c1.882,2.703,2.572,5.819,2.995,9.012c1.043,7.87-1.022,15.167-4.25,22.206
				c-3.469,7.565-7.881,14.484-13.867,20.38c-2.775,2.734-5.465,5.555-8.322,8.211c-3.862,3.592-8.18,6.471-12.97,8.669
				C163.402,127.823,163.226,127.627,163.259,126.734z"/>
			<path d="M282.729,314.135c-1.883,0.89-3.692,1.935-5.544,2.892c-2.811,1.452-5.631,2.886-8.408,4.307
				c-0.157-0.197-0.207-0.23-0.211-0.267c-0.044-0.466-0.078-0.933-0.12-1.399c-0.544-6.141-3.246-10.705-9.368-12.733
				c-4.529-1.5-9.091,0.135-11.745,4.166c-2.237,3.398-1.693,7.294,1.536,10.999c0.103,0.118,0.195,0.251,0.317,0.345
				c0.537,0.414,0.424,0.843,0.116,1.352c-3.345,5.524-6.474,11.188-10.536,16.246c-1.274,1.586-2.648,3.078-4.253,4.352
				c-0.901,0.715-1.241,0.617-1.401-0.581c-0.637-4.76-0.158-9.467,0.532-14.172c1.159-7.915,3.968-15.425,5.669-23.206
				c0.175-0.8,0.64-0.942,1.308-1.027c8.212-1.042,16.501-1.483,24.639-3.127c0.601-0.121,1.151-0.215,1.436-0.748
				c0.354-0.66-0.219-1.062-0.606-1.44c-1.579-1.541-3.563-1.767-5.65-1.753c-6.014,0.042-11.952,0.817-17.871,1.788
				c-1.198,0.197-2.104,0.397-2.118-1.424c-0.013-1.673-2.202-3.207-4.53-3.724c-1.835-0.407-2.683,0.694-3.438,2.022
				c-0.335,0.588-0.787,1.156-0.941,1.793c-0.697,2.89-2.718,3.65-5.421,4.024c-4.533,0.628-9.059,1.482-13.298,3.346
				c-0.754,0.331-2.019,0.491-1.782,1.591c0.21,0.975,1.36,0.911,2.262,0.937c1.888,0.053,3.742-0.229,5.602-0.48
				c2.977-0.402,5.956-0.788,9.125-1.207c-0.884,2.611-1.728,4.957-2.474,7.335c-2.367,7.555-3.488,15.243-2.077,23.128
				c0.708,3.957,1.995,7.678,5.271,10.356c4.558,3.726,9.085,3.332,12.832-1.162c0.899-1.078,1.66-2.269,2.523-3.378
				c0.221-0.285,0.25-0.84,0.845-0.768c0.022,2.163,0.239,4.286,0.977,6.315c1.255,3.449,3.992,5.136,7.381,5.796
				c3.077,0.599,5.335-0.943,7.065-3.341c0.79-1.095,1.534-2.239,2.164-3.432c2.707-5.125,4.13-10.672,5.038-16.343
				c0.285-1.78,0.81-2.813,2.752-2.826c0.708-0.004,1.412-0.33,2.12-0.503c5.637-1.376,9.772-5.215,14.147-8.652
				c0.652-0.512,1.244-1.109,1.821-1.708c0.857-0.89,0.706-1.752-0.123-2.595C286.722,313.637,284.752,313.179,282.729,314.135z
				 M260.604,329.321c-1.88,6.76-3.91,13.453-8.633,19.499c-1.112-7.945,0.668-15.2,1.897-22.698c2.113,1.039,4.067,2.01,6.22,2.462
				C260.484,328.666,260.745,328.813,260.604,329.321z M262.121,319.523c-0.052,0.663-0.086,1.079-0.117,1.495
				c-0.206,2.839-0.205,2.818-3.122,2.713c-2.622-0.095-4.413-1.392-5.488-3.721c-1.047-2.267-0.634-4.365,0.884-6.278
				c1.05-1.323,2.3-2.407,3.9-3.03c1.153-0.449,1.992-0.164,2.556,0.994C261.981,314.26,262.201,316.986,262.121,319.523z"/>
			<g>
				<g>
					<path style="fill:#010101;" d="M314.901,315.228c-0.177-1.463-1.451-2.341-3.254-2.112c-4.334,0.552-8.626,1.361-12.905,2.236
						c-1.722,0.352-2.557,1.447-2.349,2.924c0.187,1.331,1.36,2.196,3.264,2.19c4.265-0.762,8.827-1.522,13.362-2.422
						C314.395,317.772,315.079,316.697,314.901,315.228z"/>
					<path style="fill:#010101;" d="M308.607,332.292c-3.24-1.874-6.493-3.726-9.746-5.578c-0.552-0.314-1.167-0.437-1.799-0.467
						c-1.538-0.031-2.724,0.855-2.974,2.222c-0.255,1.394,0.515,2.438,2.141,2.941c0.443,0.137,0.903,0.281,1.291,0.524
						c2.95,1.844,6.223,3.144,8.947,5.374c0.897,0.734,1.961,0.713,2.901,0.033c0.985-0.713,1.294-1.721,0.95-2.901
						C310.042,333.492,309.443,332.775,308.607,332.292z"/>
					<path style="fill:#010101;" d="M304.798,297.708c-2.92,1.708-5.689,3.655-8.375,5.714c-0.365,0.279-0.686,0.647-0.941,1.032
						c-0.759,1.148-0.622,2.578,0.332,3.411c1.049,0.916,2.215,0.944,3.281,0.107c2.747-2.157,5.662-4.064,8.59-5.955
						c0.843-0.544,1.326-1.302,1.346-2.324C309.028,297.564,306.871,296.495,304.798,297.708z"/>
				</g>
				<g>
					<path style="fill:#010101;" d="M197.174,307.374c1.746,1.051,3.789-0.16,3.817-2.102c0.047-1.177-0.605-1.977-1.503-2.568
						c-3.094-2.036-6.49-3.469-9.941-4.751c-1.444-0.536-2.844,0.212-3.31,1.502c-0.489,1.352,0.141,3.005,1.529,3.497
						C191.054,304.116,194.182,305.572,197.174,307.374z"/>
					<path style="fill:#010101;" d="M194.008,336.415c2.422-2.449,5.023-4.692,7.625-6.939c0.657-0.568,1.057-1.279,1.123-2.159
						c-0.071-0.938-0.428-1.73-1.276-2.195c-1.014-0.556-2.09-0.466-2.949,0.22c-2.932,2.339-5.817,4.746-8.28,7.592
						c-1.041,1.203-0.921,2.721,0.092,3.664C191.338,337.525,192.899,337.536,194.008,336.415z"/>
					<path d="M185.071,315.106c-0.026,1.565,1.203,2.579,3.195,2.665c3.215,0.14,6.435-0.098,9.651,0.236
						c1.307,0.136,2.358-0.525,2.684-1.883c0.339-1.409-0.297-2.428-1.571-3.041c-0.661-0.318-1.38-0.442-2.118-0.439
						c-1.351,0.006-2.702,0.002-4.053,0.002c0-0.03,0-0.059,0-0.089c-0.779,0-1.558,0.007-2.337-0.002
						c-0.779-0.008-1.561-0.078-2.337-0.039C186.273,312.612,185.096,313.614,185.071,315.106z"/>
				</g>
			</g>
			<g>
				<g>
					<path d="M262.391,375.277c-7.296-7.1-17.065-8.199-25.743-2.91c-5.488,3.344-9.454,8.112-12.402,13.72
						c-5.896,11.216-7.655,23.147-5.626,35.614c1.169,7.187,3.745,13.815,8.504,19.467c6.313,7.499,15.516,10.069,24.082,6.593
						c5.6-2.272,9.837-6.256,13.226-11.161c6.352-9.194,8.896-19.542,9.084-29.808c-0.02-4.839-0.398-8.873-1.323-12.839
						C270.542,386.886,267.687,380.431,262.391,375.277z M235.228,443.004c-5.135-3.098-8.202-7.876-10.361-13.309
						c-2.792-7.025-3.505-14.351-2.913-21.825c0.551-6.951,2.337-13.578,5.635-19.747c2.877-5.383,6.595-10.016,12.086-12.971
						c2.615-1.408,5.4-2.202,8.396-2.143c0.475,0.009,1-0.056,0.652,0.735c-1.718,3.907-2.166,8.104-2.759,12.265
						c-1.546,10.848-1.5,21.768-1.335,32.683c0.097,6.44,0.942,12.816,2.252,19.124c0.262,1.26,0.695,2.47,1.314,3.611
						c0.565,1.042,1.365,1.766,2.859,2.091C245.444,446.106,240.248,446.033,235.228,443.004z M253.384,420.71
						c-0.227,5.489-0.718,10.959-1.77,16.363c-0.082,0.418-0.219,0.825-0.331,1.238c-0.151-0.022-0.303-0.044-0.454-0.066
						c-3.601-19.851-2.934-39.698,0.208-59.81c0.516,0.807,0.624,1.348,0.732,2.592c0.303,3.494,0.238,7.009,0.672,10.498
						C253.647,401.222,253.787,410.961,253.384,420.71z M266.238,424.644c-2.024,5.461-4.893,10.381-9.044,14.501
						c-0.82,0.815-1.747,1.522-2.813,2.441c0.214-1.348,0.77-2.321,1.003-3.398c1.051-4.85,1.471-9.779,1.782-14.709
						c0.268-4.24,0.332-8.494,0.322-12.748c-0.015-6.361-0.352-12.694-1.139-19.009c-0.308-2.471-0.475-4.973-0.491-7.463
						c-0.021-3.257-0.456-6.43-1.433-9.802c4.223,2.025,7.104,5.15,9.393,8.878c2.96,4.82,4.583,10.111,5.298,15.689
						C270.24,407.794,269.318,416.336,266.238,424.644z"/>
					<path style="fill:#708ADB;" d="M248.195,441.426c-0.619-1.141-1.052-2.351-1.314-3.611c-1.311-6.308-2.155-12.684-2.252-19.124
						c-0.165-10.915-0.211-21.835,1.335-32.683c0.593-4.161,1.041-8.358,2.759-12.265c0.348-0.791-0.177-0.725-0.652-0.735
						c-2.996-0.059-5.78,0.735-8.396,2.143c-5.491,2.956-9.209,7.589-12.086,12.971c-3.298,6.169-5.084,12.797-5.635,19.747
						c-0.592,7.473,0.121,14.8,2.913,21.825c2.159,5.432,5.226,10.211,10.361,13.309c5.021,3.029,10.217,3.102,15.826,0.514
						C249.56,443.193,248.76,442.469,248.195,441.426z"/>
					<path style="fill:#2950B8;" d="M263.818,383.336c-2.289-3.727-5.17-6.853-9.393-8.878c0.977,3.372,1.412,6.545,1.433,9.802
						c0.016,2.489,0.183,4.992,0.491,7.463c0.788,6.316,1.124,12.649,1.139,19.009c0.01,4.254-0.055,8.508-0.322,12.748
						c-0.311,4.93-0.731,9.858-1.782,14.709c-0.233,1.077-0.789,2.05-1.003,3.398c1.066-0.919,1.993-1.627,2.813-2.441
						c4.151-4.12,7.02-9.041,9.044-14.501c3.08-8.308,4.002-16.851,2.878-25.619C268.401,393.447,266.778,388.156,263.818,383.336z"
						/>
				</g>
				<g>
					<path d="M327.869,372.725c-1.996-0.345-4-0.67-6.015-0.868c-2.028-0.199-4.07-0.136-5.953,0.787
						c-1.104,0.542-1.513,1.651-1.103,2.64c0.411,0.992,1.443,1.387,2.66,0.925c0.708-0.269,1.433-0.337,2.162-0.459
						c0.941-0.159,1.259,0.093,1.292,1.124c0.187,5.974,0.039,11.94-0.324,17.9c-0.436,7.159-0.752,14.339-2.322,21.371
						c-1.404,6.288-3.157,12.464-6.487,18.066c-0.177,0.297-0.336,0.674-0.608,0.833c-1.524,0.891-4.083,0.554-5.454-0.717
						c-1.783-1.653-2.996-3.713-3.776-5.976c-2.767-8.027-4.05-16.316-4.174-24.794c-0.142-9.68,0.241-19.347,0.685-29.013
						c0.097-2.118-1.249-3.511-3.363-3.673c-4.86-0.372-7.526,1.219-9.505,5.676c-0.19,0.427-0.37,0.859-0.531,1.298
						c-2.061,5.599-3.108,11.398-3.611,17.333c-0.889,10.49-0.988,20.956,0.565,31.395c0.702,4.72,1.767,9.346,3.98,13.622
						c1.826,3.528,4.303,6.432,8.467,7.049c9.101,1.35,15.127-2.155,19.759-9.445c5.025-7.908,7.404-16.782,8.799-25.935
						c1.248-8.186,1.453-16.465,1.869-24.721c0.002-2.81,0-5.619,0.003-8.428c0.001-0.775-0.281-1.791,0.101-2.263
						c0.443-0.546,1.426,0.089,2.183,0.098c0.039,0,0.078,0.007,0.117,0.01c1.421,0.118,2.329-0.431,2.505-1.514
						C329.977,373.868,329.296,372.972,327.869,372.725z M300.23,443.429c-0.732,0.1-1.479,0.084-2.217,0.151
						c-4.131,0.375-6.795-1.63-8.561-5.186c-2.038-4.105-2.995-8.505-3.651-12.992c-1.492-10.21-1.304-20.452-0.408-30.688
						c0.514-5.876,1.63-11.641,4.002-17.109c0.768-1.772,1.962-2.667,3.897-2.813c1.116-0.084,1.327,0.247,1.253,1.275
						c-0.646,8.991-0.701,17.997-0.689,27.006c0.012,8.839,1.415,17.454,4.094,25.866c0.557,1.749,1.388,3.387,2.383,4.93
						c1.774,2.75,3.876,5.092,7.553,5.614C305.663,441.739,303.173,443.028,300.23,443.429z"/>
					<path style="fill:#FCCF03;" d="M300.333,433.87c-0.995-1.543-1.827-3.181-2.383-4.93c-2.679-8.411-4.082-17.027-4.094-25.866
						c-0.012-9.009,0.042-18.016,0.689-27.006c0.074-1.028-0.137-1.36-1.253-1.275c-1.935,0.146-3.128,1.042-3.897,2.813
						c-2.372,5.467-3.488,11.232-4.002,17.109c-0.896,10.235-1.085,20.478,0.408,30.688c0.656,4.486,1.612,8.887,3.651,12.992
						c1.766,3.556,4.43,5.561,8.561,5.186c0.738-0.067,1.485-0.051,2.217-0.151c2.943-0.402,5.433-1.69,7.657-3.945
						C304.21,438.962,302.107,436.62,300.333,433.87z"/>
				</g>
				<g>
					<path d="M216.228,373.618c-0.872-0.191-1.771-0.257-2.66-0.368c-2.746-0.34-5.486-0.831-8.268-0.583
						c-3.098,0.277-5.632,1.218-7.309,4.299c-2.698,4.958-5.572,9.823-8.123,14.863c-0.5,0.987-0.734,0.836-1.321,0.106
						c-3.004-3.74-6.059-7.439-9.078-11.167c-1.22-1.506-2.352-3.078-3.421-4.998c1.482,0,2.727,0.023,3.971-0.006
						c1.445-0.034,2.339-0.77,2.382-1.897c0.042-1.128-0.834-2.043-2.246-2.013c-4.134,0.089-8.267,0.128-12.402,0.123
						c-1.468-0.002-2.468,1.166-2.316,2.387c0.153,1.233,1.137,1.766,2.764,1.523c0.382-0.057,0.776-0.034,1.163-0.065
						c1.371-0.108,2.346,0.401,3.043,1.644c0.703,1.254,1.536,2.443,2.395,3.6c3.745,5.044,7.889,9.769,11.828,14.658
						c0.604,0.749,0.634,1.275,0.213,2.13c-5.275,10.698-9.854,21.685-13.523,33.042c-1.236,3.827-2.339,7.686-2.342,11.756
						c-0.002,2.131,0.962,3.268,3.028,3.641c2.65,0.478,5.285-0.065,7.929-0.124c2.359-0.052,3.686-1.311,4.589-3.337
						c3.469-7.787,7.068-15.518,10.445-23.344c4.385-10.161,9.017-20.192,14.522-29.803c2.246-3.921,4.747-7.693,6.807-11.72
						C219.424,375.759,218.667,374.152,216.228,373.618z M213.829,378.001c-1.314,2.25-2.638,4.495-3.968,6.736
						c-5.665,9.55-10.618,19.458-14.938,29.685c-3.178,7.524-6.695,14.896-10.035,22.347c-0.684,1.527-1.367,3.054-2.022,4.593
						c-0.262,0.615-0.655,0.872-1.338,0.892c-1.285,0.036-2.567,0.171-3.85,0.264c-3.738,0.151-2.909,0.111-2.497-2.872
						c0.718-5.205,2.632-10.082,4.415-14.973c5.165-14.173,11.637-27.747,19.025-40.891c0.782-1.39,1.632-2.742,2.398-4.141
						c1.181-2.153,2.97-3.125,5.42-3.138c2.435-0.014,4.8,0.532,7.208,0.702C214.424,377.261,213.998,377.712,213.829,378.001z"/>
					<path style="fill:#FC6029;" d="M213.649,377.206c-2.408-0.17-4.773-0.716-7.208-0.702c-2.451,0.014-4.24,0.985-5.42,3.138
						c-0.767,1.398-1.617,2.75-2.398,4.141c-7.388,13.143-13.86,26.718-19.025,40.891c-1.783,4.891-3.697,9.769-4.415,14.973
						c-0.412,2.983-1.241,3.023,2.497,2.872c1.283-0.094,2.565-0.228,3.85-0.264c0.683-0.019,1.076-0.277,1.338-0.892
						c0.655-1.539,1.338-3.066,2.022-4.593c3.339-7.452,6.857-14.823,10.035-22.347c4.319-10.226,9.272-20.135,14.938-29.685
						c1.33-2.241,2.654-4.486,3.968-6.736C213.998,377.712,214.424,377.261,213.649,377.206z"/>
				</g>
			</g>
			<g>
				<g>
					<path d="M284.278,269.154c0.198-0.671,0.404-1.353,0.479-2.044c0.87-7.945,1.877-15.88,2.527-23.844
						c0.79-9.679,1.29-19.383,1.876-29.078c0.12-1.982,0.289-3.97,0.088-5.963c-0.358-3.561-1.602-4.856-5.113-5.147
						c-4.083-0.339-8.168-0.616-12.272-0.532c-1.087,0.022-1.908,0.347-2.707,1.099c-0.976,0.92-1.031,2.048-1.083,3.215
						c-0.409,9.081-0.807,18.162-1.218,27.243c-0.116,2.568-0.131,2.567-2.652,2.688c-0.273,0.013-0.545,0.035-0.817,0.054
						c-3.942,0.284-7.878-0.158-11.818-0.121c-0.726,0.007-1.116-0.207-1.05-1.09c0.127-1.71,0.13-3.431,0.163-5.147
						c0.146-7.415,1.295-14.766,1.392-22.186c0.037-2.85-0.777-4.025-3.546-4.803c-0.799-0.225-1.611-0.354-2.427-0.313
						c-2.493,0.126-4.996,0.177-7.478,0.375c-2.19,0.176-4.231,1.415-4.177,4.311c0.173,9.324,0.199,18.653,0.032,28.586
						c-0.202,7.238-0.205,15.082,0.127,22.922c0.127,2.997,0.136,6.008,0.686,8.976c0.484,2.613,2.045,4.345,4.374,4.73
						c1.872,0.31,3.73,0.126,5.562-0.358c1.768-0.468,2.776-1.654,3.186-3.384c0.416-1.755,0.498-3.547,0.546-5.344
						c0.193-7.334,0.66-14.653,1.238-21.966c0.119-1.503,0.145-1.456,1.708-1.407c4.522,0.143,9.047,0.433,13.568,0.002
						c0.815-0.078,0.987,0.197,0.951,0.956c-0.14,2.923-0.215,5.848-0.329,8.773c-0.206,5.27-0.182,10.547,0.369,15.787
						c0.453,4.305,1.752,5.583,5.54,5.95c3.038,0.295,6.084,0.087,9.115-0.224C282.763,271.698,283.813,270.732,284.278,269.154z
						 M247.413,220.14c-0.589,5.671-0.586,11.368-0.896,17.05c-0.296,5.41-0.695,10.814-1.008,16.223
						c-0.172,2.958-0.303,5.92-0.371,8.882c-0.044,1.911-0.116,3.813-0.401,5.705c-0.103,0.683-0.403,1.053-1.118,1.092
						c-0.816,0.044-1.628,0.198-2.443,0.198c-1.361-0.001-1.848-0.397-2.039-1.738c-0.219-1.542-0.405-3.096-0.473-4.651
						c-0.393-9.005-0.486-18.015-0.257-27.027c0.17-8.972,0.032-17.943-0.009-26.915c-0.007-1.542,0.048-1.588,1.553-1.605
						c1.793-0.021,3.587,0.007,5.374-0.217c0.534-0.067,1.088-0.002,1.631,0.03c0.885,0.053,1.242,0.459,1.209,1.42
						C248.031,212.447,247.812,216.302,247.413,220.14z M280.951,266.083c-0.243,2.017-0.299,2.007-2.286,2.058
						c-2.144,0.056-4.285,0.161-6.433,0.05c-1.102-0.057-1.616-0.573-1.766-1.609c-0.264-1.817-0.409-3.647-0.429-5.478
						c-0.042-3.745-0.013-7.492-0.013-12.454c0.208-7.13,0.858-15.456,1.223-23.795c0.244-5.574,0.442-11.149,0.656-16.724
						c0.064-1.656,0.057-1.677,1.693-1.691c3.475-0.03,6.928,0.345,10.39,0.559c1.079,0.067,1.336,0.677,1.37,1.501
						c0.053,1.324,0.08,2.657,0,3.978c-0.603,9.926-1.172,19.855-1.885,29.773c-0.335,4.662-0.966,9.302-1.461,13.952
						C281.658,259.497,281.346,262.795,280.951,266.083z"/>
					<path style="fill:#FC7346;" d="M285.355,212.479c0.08-1.322,0.054-2.654,0-3.978c-0.033-0.824-0.291-1.434-1.37-1.501
						c-3.462-0.214-6.915-0.59-10.39-0.559c-1.636,0.014-1.629,0.035-1.693,1.691c-0.214,5.575-0.412,11.15-0.656,16.724
						c-0.365,8.339-1.014,16.665-1.223,23.795c0,4.962-0.029,8.708,0.013,12.454c0.02,1.831,0.165,3.661,0.429,5.478
						c0.15,1.036,0.664,1.552,1.766,1.609c2.148,0.111,4.289,0.006,6.433-0.05c1.987-0.052,2.043-0.041,2.286-2.058
						c0.395-3.288,0.708-6.586,1.058-9.879c0.495-4.65,1.126-9.29,1.461-13.952C284.183,232.334,284.752,222.405,285.355,212.479z"
						/>
					<path style="fill:#FC7346;" d="M246.956,207.167c-0.543-0.033-1.097-0.097-1.631-0.03c-1.787,0.224-3.581,0.196-5.374,0.217
						c-1.506,0.017-1.56,0.064-1.553,1.605c0.041,8.972,0.179,17.943,0.009,26.915c-0.228,9.012-0.136,18.021,0.257,27.027
						c0.068,1.555,0.253,3.109,0.473,4.651c0.191,1.341,0.678,1.737,2.039,1.738c0.814,0,1.627-0.154,2.443-0.198
						c0.715-0.039,1.016-0.408,1.118-1.092c0.285-1.893,0.357-3.794,0.401-5.705c0.068-2.962,0.2-5.924,0.371-8.882
						c0.314-5.409,0.713-10.813,1.008-16.223c0.31-5.682,0.307-11.379,0.896-17.05c0.399-3.838,0.618-7.693,0.752-11.552
						C248.198,207.627,247.841,207.221,246.956,207.167z"/>
				</g>
				<g>
					<path d="M97.53,266.022c5.785-7.04,1.029-16.872-4.942-18.875c-0.761-0.255-1.534-0.472-2.434-0.746
						c0.567-0.512,1.051-0.954,1.541-1.39c4.217-3.75,7.811-7.954,9.761-13.361c2.593-7.188,1.836-14.022-2.192-20.493
						c-2.782-4.468-8.868-8.173-16.837-5.918c-0.94,0.266-1.68,0.193-2.27-0.52c-0.889-1.076-2.066-1.315-3.349-1.339
						c-2.471-0.046-4.906-0.505-7.425-0.009c-1.679,0.331-2.529,0.596-2.674,2.211c-0.428,4.775-0.879,9.55-1.189,14.333
						c-0.41,6.343-0.701,12.694-1.033,19.043c-0.464,8.851-0.678,17.698,0.504,26.518c0.18,1.345,0.469,2.695,0.462,4.042
						c-0.009,1.702,0.358,2.352,2.078,2.588c2.164,0.297,4.348,0.368,6.529,0.469c4.263,0.197,8.5-0.219,12.698-0.793
						C90.989,271.204,94.716,269.446,97.53,266.022z M78.017,268.502c-2.692,0.057-5.381,0.057-8.068-0.198
						c-0.583-0.055-0.675-0.297-0.732-0.787c-0.844-7.333-1.319-14.682-0.971-22.068c0.284-6.039,0.538-12.08,0.858-18.118
						c0.343-6.463,0.784-12.92,1.4-19.365c0.072-0.748,0.443-0.916,1.065-0.875c1.751,0.114,3.501,0.248,5.253,0.342
						c0.732,0.039,0.764,0.494,0.755,1.044c-0.034,2.224-0.072,4.448-0.079,6.672c-0.012,4.058-0.003,8.116-0.003,12.174
						c0.219,11.782,0.975,23.535,1.77,35.288c0.1,1.478,0.097,2.963,0.157,4.445C79.462,268.044,78.947,268.483,78.017,268.502z
						 M82.024,241.879c-0.451-10.094-0.618-20.192-0.456-30.294c0.027-1.7,0.377-2.131,1.991-2.5
						c2.878-0.657,5.693-0.766,8.415,0.698c1.92,1.033,3.369,2.486,4.409,4.382c4.056,7.395,3.205,15.742-2.51,22.783
						c-3.232,3.981-7.068,7.345-11.538,10.317C82.219,245.291,82.1,243.586,82.024,241.879z M83.465,266.964
						c-0.185-3.46-0.361-6.919-0.549-10.379c-0.065-1.205-0.154-2.408-0.245-3.811c-0.386-1.008,0.361-1.371,1.319-1.64
						c1.506-0.423,3.029-0.764,4.594-0.709c2.993,0.105,5.125,1.537,6.461,4.239c1.424,2.878,1.601,5.708-0.347,8.378
						c-2.576,3.53-6.327,4.701-10.492,4.935C83.394,268.022,83.491,267.456,83.465,266.964z"/>
					<path style="fill:#FCCF03;" d="M77.496,227.323c0-4.058-0.009-8.116,0.003-12.174c0.007-2.224,0.045-4.448,0.079-6.672
						c0.008-0.55-0.023-1.005-0.755-1.044c-1.752-0.094-3.502-0.228-5.253-0.342c-0.622-0.04-0.993,0.128-1.065,0.875
						c-0.617,6.444-1.057,12.902-1.4,19.365c-0.321,6.037-0.574,12.078-0.858,18.118c-0.348,7.386,0.127,14.734,0.971,22.068
						c0.056,0.49,0.149,0.732,0.732,0.787c2.687,0.255,5.376,0.255,8.068,0.198c0.931-0.02,1.446-0.459,1.406-1.447
						c-0.059-1.481-0.057-2.966-0.157-4.445C78.471,250.858,77.715,239.105,77.496,227.323z"/>
				</g>
				<g>
					<path d="M388.817,274.578c1.35-0.12,2.07-0.952,1.997-2.119c-0.07-1.108-0.966-1.849-2.292-1.841
						c-0.74,0.004-1.479,0.094-2.219,0.124c-2.029,0.084-2.066,0.088-2.503-1.932c-2.744-12.68-5.471-25.364-8.201-38.047
						c-1.854-8.614-4.091-17.126-6.781-25.518c-0.291-0.908-0.789-1.653-1.428-2.371c-0.947-1.063-2.362-1.176-3.436-1.91
						c-1.409-0.964-2.879-0.724-4.378-0.524c-1.562,0.208-2.515,0.974-3.009,2.598c-2.325,7.643-4.378,15.358-6.443,23.072
						c-2.85,10.648-5.787,21.273-8.615,31.926c-0.768,2.894-1.281,5.856-1.788,8.218c-0.028,2.193,0.721,3.281,2.248,3.743
						c0.629,0.19,1.293,0.289,1.949,0.358c2.988,0.312,5.987,0.441,8.989,0.547c3.967,0.139,4.885-0.606,5.366-4.536
						c0.009-0.077,0.014-0.155,0.022-0.233c0.711-6.823,1.447-13.643,2.326-20.448c0.085-0.654,0.302-0.978,0.956-1.072
						c0.963-0.139,1.919-0.332,2.877-0.511c2.808-0.526,5.683-0.363,8.492-0.817c0.919-0.148,1.267-0.02,1.472,0.964
						c1.743,8.352,3.544,16.692,5.341,25.032c0.35,1.626,0.376,1.619-1.232,2.132c-0.222,0.071-0.448,0.141-0.656,0.243
						c-1.096,0.536-1.582,1.588-1.211,2.596c0.356,0.967,1.339,1.483,2.501,1.161c1.145-0.318,2.302-0.365,3.47-0.429
						C384.694,274.87,386.759,274.761,388.817,274.578z M357.936,235.655c-0.363,2.451-0.714,4.909-1.226,7.349
						c-0.402,1.917-0.346,4.005-0.576,6.012c-0.646,5.651-1.272,11.304-1.879,16.959c-0.074,0.685-0.319,0.964-1.023,0.917
						c-0.776-0.052-1.558-0.012-2.337-0.012c-0.001-0.022-0.001-0.045-0.002-0.067c-1.984-0.131-3.966-0.29-5.952-0.381
						c-0.901-0.041-1.075-0.384-0.901-1.241c1.172-5.77,2.704-11.447,4.267-17.119c2.803-10.176,5.523-20.375,8.305-30.556
						c1.17-4.281,2.335-8.565,3.677-12.799c0.251-0.792,0.408-0.983,1.207-0.491c2.093,1.287,2.096,1.236,1.559,3.625
						C360.988,217.052,359.32,226.326,357.936,235.655z M372.171,239.353c-3.409,0.307-6.854,0.296-10.208,1.106
						c-0.654,0.158-0.608-0.161-0.542-0.624c0.77-5.435,1.575-10.863,2.59-16.259c0.746-3.967,1.515-7.93,2.274-11.895
						c0.1-0.006,0.2-0.012,0.3-0.018c1.862,6.46,3.575,12.959,4.983,19.536c0.497,2.322,0.921,4.661,1.512,6.959
						C373.333,239.144,372.954,239.283,372.171,239.353z"/>
					<path style="fill:#FCCF03;" d="M361.498,204.226c-0.799-0.492-0.956-0.301-1.207,0.491c-1.342,4.234-2.507,8.517-3.677,12.799
						c-2.783,10.182-5.502,20.38-8.305,30.556c-1.563,5.673-3.095,11.35-4.267,17.119c-0.174,0.857,0,1.199,0.901,1.241
						c1.986,0.091,3.968,0.25,5.952,0.381c0.001,0.022,0.001,0.045,0.002,0.067c0.779,0,1.561-0.04,2.337,0.012
						c0.704,0.047,0.949-0.232,1.023-0.917c0.607-5.655,1.232-11.308,1.879-16.959c0.23-2.008,0.174-4.095,0.576-6.012
						c0.512-2.441,0.862-4.898,1.226-7.349c1.384-9.329,3.052-18.602,5.12-27.803C363.593,205.462,363.59,205.513,361.498,204.226z"
						/>
				</g>
				<g>
					<path d="M172.063,263.618c1.114,2.75,1.818,5.629,2.654,8.467c0.411,1.395,1.495,2.017,2.64,1.645
						c1.134-0.369,1.662-1.536,1.265-2.874c-0.609-2.053-1.19-4.116-1.87-6.145c-2.443-7.286-6.334-13.431-13.538-16.939
						c0.157-0.433,0.562-0.633,0.876-0.907c11.152-9.733,12.842-25.791,3.99-37.677c-1.945-2.612-4.42-4.367-7.605-5.067
						c-1.323-0.291-2.78-0.171-3.735-1.435c-0.122-0.162-0.408-0.242-0.632-0.28c-3.457-0.592-6.938-0.877-10.223,0.624
						c-1.549,0.708-3.126,1.582-3.346,3.699c-1.038,9.99-1.256,20.005-1.028,30.036c0.131,5.773,0.39,11.542,0.821,17.299
						c0.32,4.273,0.726,8.539,1.589,12.752c0.571,2.788,2.276,4.391,4.953,4.957c2.794,0.591,5.64,0.779,8.494,0.563
						c2.489-0.188,3.625-1.361,3.533-3.856c-0.12-3.233-0.383-6.461-0.622-9.688c-0.192-2.596-0.441-5.188-0.673-7.881
						c1.534,0.304,2.795,0.905,3.966,1.672C167.677,255.274,170.256,259.155,172.063,263.618z M155.533,268.431
						c-1.857-0.209-3.73-0.208-5.581-0.549c-1.374-0.253-1.967-1.052-2.197-2.343c-0.494-2.764-0.867-5.545-1.107-8.338
						c-0.757-8.822-1.11-17.665-1.244-26.571c0.176-7.237,0.239-14.53,0.958-21.797c0.133-1.341,0.768-2.112,2.071-2.473
						c1.767-0.49,3.56-0.287,5.35-0.251c0.824,0.016,0.667,0.582,0.646,1.073c-0.107,2.571-0.305,5.142-0.315,7.713
						c-0.039,10.414,0.175,20.822,1.038,31.207c0.581,6.99,1.109,13.985,1.713,20.974
						C156.961,268.199,156.602,268.552,155.533,268.431z M161.301,243.938c-0.659,0.578-1.256,1.248-2.189,1.74
						c-0.18-2.828-0.422-5.537-0.513-8.252c-0.309-9.235-0.77-18.47-0.285-27.714c0.069-1.325,0.743-1.824,2.029-1.448
						c1.961,0.573,3.403,1.817,4.58,3.443C172.475,222.136,170.987,235.446,161.301,243.938z"/>
					<path style="fill:#FB73AA;" d="M155.151,246.102c-0.863-10.386-1.077-20.793-1.038-31.207c0.01-2.572,0.208-5.142,0.315-7.713
						c0.02-0.491,0.178-1.057-0.646-1.073c-1.79-0.035-3.583-0.239-5.35,0.251c-1.303,0.362-1.938,1.132-2.071,2.473
						c-0.72,7.266-0.782,14.56-0.958,21.797c0.134,8.907,0.488,17.749,1.244,26.571c0.24,2.793,0.613,5.574,1.107,8.338
						c0.231,1.291,0.823,2.089,2.197,2.343c1.851,0.341,3.724,0.34,5.581,0.549c1.069,0.121,1.428-0.232,1.331-1.355
						C156.26,260.087,155.732,253.093,155.151,246.102z"/>
				</g>
				<g>
					<path d="M324.823,210.457c-3.229-2.19-6.704-3.984-10.733-4.253c-0.395-0.026-0.481-0.217-0.613-0.54
						c-0.84-2.06-2.015-2.766-4.27-2.653c-2.505,0.126-4.939,0.616-7.349,1.298c-1.54,0.435-2.402,1.417-2.625,2.938
						c-0.22,1.502-0.46,3.02-0.457,4.531c0.012,5.899-0.644,11.757-1.048,17.627c-0.584,8.484-0.957,16.975-1.31,24.433
						c-0.179,5.206-0.367,9.376-0.449,13.549c-0.056,2.804,1.501,4.76,4.252,5.15c3.768,0.534,7.545,0.013,11.304-0.321
						c1.04-0.092,1.929-0.759,2.334-1.757c0.374-0.921,1.041-1.404,1.879-1.775c0.605-0.268,1.196-0.566,1.797-0.843
						c3.23-1.492,6.43-3.063,8.916-5.686c9.493-10.014,12.943-21.647,9.432-35.183C334.113,220.147,330.703,214.445,324.823,210.457
						z M309.489,268.181c-0.124,0.291-0.536,0.278-0.849,0.291c-2.219,0.094-4.438,0.219-6.658,0.264
						c-1.648,0.033-2.056-0.364-1.995-1.962c0.275-7.168,0.594-14.334,0.876-21.501c0.294-7.479,0.868-14.939,1.389-22.404
						c0.309-4.43,0.739-8.856,0.758-13.305c0.004-0.927,0.253-1.507,1.379-1.77c1.489-0.347,3-0.453,4.486-0.745
						c0.605-0.119,0.85,0.115,0.882,0.729c0.134,2.529,0.414,5.056,0.428,7.585c0.052,9.402,0.021,18.804,0.021,28.207
						c0.114,6.867,0.366,13.728,0.704,20.583C310.991,265.781,310.046,266.875,309.489,268.181z M332.227,244.498
						c-1.429,5.173-4.008,9.78-7.612,13.799c-2.648,2.953-6.037,4.703-9.665,6.25c-0.292-6.345-0.479-12.577-0.492-18.817
						c-0.019-9.207-0.105-18.414-0.192-27.621c-0.02-2.144-0.158-4.287-0.241-6.43c-0.063-1.626-0.038-1.678,1.493-1.211
						c7.352,2.238,12.65,6.786,15.342,14.061C333.264,231.027,334.099,237.719,332.227,244.498z"/>
					<path style="fill:#2950B8;" d="M310.186,215.364c-0.014-2.529-0.294-5.056-0.428-7.585c-0.032-0.614-0.277-0.848-0.882-0.729
						c-1.486,0.292-2.997,0.398-4.486,0.745c-1.126,0.262-1.375,0.843-1.379,1.77c-0.02,4.448-0.449,8.874-0.758,13.305
						c-0.521,7.465-1.095,14.925-1.389,22.404c-0.282,7.167-0.601,14.333-0.876,21.501c-0.061,1.598,0.346,1.995,1.995,1.962
						c2.22-0.045,4.439-0.17,6.658-0.264c0.313-0.013,0.725,0,0.849-0.291c0.557-1.306,1.502-2.4,1.422-4.028
						c-0.338-6.855-0.59-13.716-0.704-20.583C310.207,234.169,310.238,224.766,310.186,215.364z"/>
				</g>
				<g>
					<path d="M433.066,203.515c-4.42-1.539-8.861-0.875-13.269,0.031c-1.372,0.282-1.934,1.566-1.396,2.829
						c0.241,0.565,0.059,0.96-0.107,1.427c-2.137,6.02-4.619,11.904-6.992,17.831c-1.381,3.449-2.697,6.923-4.112,10.564
						c-4.919-9.285-8.363-19.058-13.183-28.445c0.513,0.073,0.733,0.116,0.955,0.135c1.321,0.112,2.263-0.61,2.394-1.83
						c0.131-1.211-0.763-2.277-2.049-2.371c-0.539-0.04-1.089,0.032-1.631,0.083c-2.723,0.256-5.364,0.936-8.02,1.543
						c-1.383,0.316-2.08,1.176-1.865,2.358c0.194,1.069,1.357,1.807,2.616,1.606c0.768-0.123,1.546-0.263,2.278-0.517
						c0.954-0.331,1.395-0.049,1.839,0.867c3.653,7.538,6.785,15.309,10.33,22.894c1.186,2.538,2.385,5.087,3.825,7.483
						c0.607,1.011,0.612,1.698,0.225,2.704c-3.304,8.577-5.4,17.569-8.981,26.057c-0.98,2.323,0.332,4.313,2.826,4.281
						c4.37-0.056,8.738,0.298,13.106,0.019c2.353-0.151,4.043-1.161,4.873-3.502c0.585-1.649,1.297-3.253,1.835-4.924
						c2.733-8.49,5.467-16.979,8.227-25.46c3.28-10.08,6.35-20.22,8.86-30.524C436.319,205.895,435.592,204.395,433.066,203.515z
						 M431.452,208.851c-2.338,9.207-4.972,18.328-7.903,27.363c-3.097,9.548-6.206,19.092-9.328,28.632
						c-0.338,1.033-0.838,2.013-1.181,3.045c-0.263,0.791-0.767,1.083-1.552,1.141c-1.87,0.138-3.734,0.143-5.61,0.046
						c-1.865-0.096-3.738-0.021-5.824-0.021c1.291-3.16,2.503-6.071,3.396-9.089c2.842-9.602,6.256-19.004,9.833-28.348
						c3.048-7.962,6.449-15.787,9.336-23.813c0.135-0.376,0.234-0.714,0.732-0.783c2.281-0.314,4.548-0.65,6.851-0.098
						C431.847,207.319,431.855,207.266,431.452,208.851z"/>
					<path style="fill:#FB73AA;" d="M430.202,206.925c-2.303-0.551-4.57-0.216-6.851,0.098c-0.498,0.069-0.597,0.407-0.732,0.783
						c-2.887,8.026-6.288,15.851-9.336,23.813c-3.577,9.344-6.991,18.746-9.833,28.348c-0.893,3.017-2.104,5.929-3.396,9.089
						c2.085,0,3.959-0.075,5.824,0.021c1.875,0.097,3.739,0.092,5.61-0.046c0.785-0.058,1.289-0.35,1.552-1.141
						c0.343-1.032,0.843-2.012,1.181-3.045c3.122-9.54,6.23-19.084,9.328-28.632c2.931-9.035,5.565-18.156,7.903-27.363
						C431.855,207.266,431.847,207.319,430.202,206.925z"/>
				</g>
				<g>
					<path d="M217.516,211.46c0.087,1.705,0.127,3.441,0.679,5.081c0.395,1.175,1.403,1.712,2.466,1.447
						c0.984-0.245,1.63-1.212,1.363-2.377c-0.529-2.307-0.246-4.711-1.121-7.002c-0.726-1.901-0.942-2.373-2.952-2.334
						c-3.826,0.075-7.647-0.008-11.465-0.258c-1.266-0.083-2.568,0.056-3.721-0.731c-0.419-0.286-1.007-0.245-1.469,0.009
						c-0.667,0.367-1.364,0.315-2.053,0.233c-3.988-0.476-8.006-0.547-12.001-0.916c-2.561-0.237-5.183-0.229-7.648-0.943
						c-2.042-0.592-3.337,0.252-3.776,2.441c-0.456,2.273-0.433,4.649-0.534,6.984c-0.039,0.904,0.516,1.544,1.416,1.778
						c0.954,0.248,1.686-0.136,2.2-0.933c0.299-0.464,0.428-1.003,0.471-1.553c0.092-1.166,0.219-2.333,0.24-3.501
						c0.012-0.73,0.14-1.016,0.984-0.919c3.098,0.358,6.204,0.649,9.312,0.909c0.73,0.061,0.69,0.395,0.594,0.913
						c-0.6,3.221-0.952,6.479-1.315,9.731c-1.197,10.744-1.755,21.533-2.161,33.691c-0.073,2.697-0.358,6.751-0.212,10.811
						c0.167,4.638,1.884,6.617,6.433,7.46c2.074,0.384,4.181,0.474,6.271,0.715c4.106,0.474,5.27-1.148,5.81-4.899
						c0.033-0.231,0.034-0.467,0.057-0.7c0.452-4.713,0.392-9.439,0.168-14.153c-0.654-13.801-1.051-27.606-1.086-41.423
						c-0.002-0.889,0.183-1.08,1.09-1.03c3.583,0.195,7.167,0.513,10.759,0.315C217.249,210.257,217.47,210.55,217.516,211.46z
						 M201.333,266.626c-0.18,1.613-0.162,1.609-1.754,1.499c-2.021-0.139-4.037-0.299-6.031-0.692
						c-2.131-0.419-2.64-1.012-2.699-3.229c-0.126-4.721,0.145-9.434,0.315-14.148c0.155-4.285,0.394-8.567,0.617-12.85
						c0.349-6.694,0.93-13.368,1.764-20.019c0.3-2.394,0.699-4.776,1.002-7.17c0.084-0.662,0.313-0.843,0.972-0.759
						c1.235,0.158,2.482,0.293,3.724,0.302c0.965,0.007,1.239,0.353,1.242,1.302c0.013,5.888,0.056,11.777,0.147,17.665
						c0.116,7.485,0.505,14.961,0.851,22.439c0.106,2.295,0.016,4.6,0.016,6.9C201.615,260.789,201.659,263.713,201.333,266.626z"/>
					<path style="fill:#708ADB;" d="M201.483,250.966c-0.346-7.477-0.735-14.953-0.851-22.439
						c-0.091-5.888-0.134-11.776-0.147-17.665c-0.002-0.949-0.277-1.295-1.242-1.302c-1.243-0.01-2.489-0.145-3.724-0.302
						c-0.658-0.084-0.888,0.097-0.972,0.759c-0.303,2.394-0.702,4.776-1.002,7.17c-0.834,6.651-1.415,13.325-1.764,20.019
						c-0.223,4.282-0.462,8.564-0.617,12.85c-0.17,4.714-0.441,9.427-0.315,14.148c0.059,2.218,0.568,2.81,2.699,3.229
						c1.994,0.393,4.01,0.552,6.031,0.692c1.592,0.11,1.574,0.114,1.754-1.499c0.325-2.913,0.282-5.837,0.166-8.76
						C201.5,255.566,201.59,253.261,201.483,250.966z"/>
				</g>
				<g>
					<path d="M113.758,268.146c0.346,3.003,2.043,4.551,5.07,4.561c1.868,0.006,3.739-0.164,5.603-0.318
						c1.825-0.15,3.647-0.357,5.425-0.83c1.246-0.332,1.995-1.121,2.285-2.394c0.195-0.856,0.191-1.709,0.087-2.558
						c-0.452-3.715-0.931-7.426-1.403-11.139c-1.072-8.441-1.674-16.922-1.982-25.42c-0.256-7.058-0.348-14.122-0.498-21.183
						c-0.033-1.564-0.66-2.741-1.972-3.627c-2.434-1.644-5.151-2.125-8.093-2.126c-3.485-0.427-5.425,1.784-5.81,5.082
						c-0.326,2.794-0.5,5.594-0.58,8.4c-0.425,14.76,0.311,29.49,1.204,44.214C113.243,263.259,113.477,265.707,113.758,268.146z
						 M115.849,226.805c0.056-5.771-0.099-11.548,0.523-17.302c0.021-0.194,0.013-0.391,0.038-0.584
						c0.219-1.689,0.302-1.731,2.031-1.771c1.745-0.041,3.406,0.257,4.982,1.017c0.611,0.294,0.897,0.686,0.899,1.434
						c0.007,2.73,0.14,5.459,0.167,8.189c0.056,5.694,0.211,11.387,0.531,17.071c0.427,7.582,0.947,15.158,2.019,22.685
						c0.439,3.082,0.729,6.184,1.113,9.274c0.085,0.687,0.007,1.068-0.82,1.191c-2.51,0.375-5.041,0.469-7.564,0.646
						c-1.591,0.112-1.948-0.038-2.1-1.675c-0.386-4.152-0.648-8.308-0.869-12.471C116.311,245.279,115.719,236.055,115.849,226.805z
						"/>
					<path style="fill:#2950B8;" d="M117.669,266.979c0.152,1.638,0.509,1.787,2.1,1.675c2.523-0.177,5.054-0.271,7.564-0.646
						c0.827-0.124,0.905-0.504,0.82-1.191c-0.384-3.09-0.674-6.193-1.113-9.274c-1.072-7.528-1.592-15.104-2.019-22.685
						c-0.321-5.684-0.475-11.377-0.531-17.071c-0.027-2.73-0.16-5.459-0.167-8.189c-0.002-0.749-0.288-1.14-0.899-1.434
						c-1.577-0.76-3.237-1.057-4.982-1.017c-1.729,0.04-1.813,0.083-2.031,1.771c-0.025,0.193-0.017,0.39-0.038,0.584
						c-0.622,5.754-0.467,11.532-0.523,17.302c-0.13,9.25,0.462,18.475,0.951,27.704
						C117.021,258.671,117.283,262.828,117.669,266.979z"/>
				</g>
			</g>
		</g>
	</g>
</g>
</svg>
